<svg width="22" height="22" viewBox="0 0 22 22" fill="none" xmlns="http://www.w3.org/2000/svg">
<path d="M18.4172 17.5572H15.2538C15.0326 17.5572 14.8525 17.3927 14.8525 17.1907C14.8525 16.9887 15.0326 16.8242 15.2538 16.8242H18.4172C18.6384 16.8242 18.8184 16.9887 18.8184 17.1907C18.8184 17.3927 18.6384 17.5572 18.4172 17.5572Z" fill="#F15D22" stroke="#F15D22" stroke-width="0.6"/>
<path d="M16.8387 18.9974C16.6175 18.9974 16.4375 18.833 16.4375 18.631V15.7415C16.4375 15.5394 16.6175 15.375 16.8387 15.375C17.0599 15.375 17.2399 15.5394 17.2399 15.7415V18.631C17.2399 18.833 17.0599 18.9974 16.8387 18.9974Z" fill="#F15D22" stroke="#F15D22" stroke-width="0.6"/>
<path d="M16.8388 21.0012C14.5447 21.0012 12.6826 19.291 12.6826 17.1861C12.6826 15.0813 14.5498 13.3711 16.8388 13.3711C19.1278 13.3711 21.0001 15.0813 21.0001 17.1861C21.0001 19.291 19.1329 21.0012 16.8388 21.0012ZM16.8388 14.0993C14.987 14.0993 13.4799 15.4853 13.4799 17.1861C13.4799 18.8869 14.987 20.273 16.8388 20.273C18.6906 20.273 20.2029 18.8869 20.2029 17.1861C20.2029 15.4853 18.6957 14.0993 16.8388 14.0993Z" fill="#F15D22" stroke="#F15D22" stroke-width="0.6"/>
<path d="M1.51438 20.7319H1.50924C1.22633 20.7319 1 20.5158 1 20.2574C1.03086 18.3546 1.91045 16.7195 3.54104 15.5309C5.77859 13.9005 9.32781 13.2569 12.5787 13.8864C12.8565 13.9428 13.0313 14.1918 12.9748 14.4455C12.913 14.6993 12.6404 14.859 12.3627 14.8073C9.39982 14.2341 6.19009 14.8073 4.18401 16.2685C2.80033 17.2739 2.05448 18.6599 2.02876 20.2762C2.02876 20.5346 1.79729 20.7413 1.51438 20.7413V20.7319Z" fill="#F15D22" stroke="#F15D22" stroke-width="0.6"/>
<path d="M10.001 12.0646C6.54946 12.0646 3.74609 9.58386 3.74609 6.52994C3.74609 3.47602 6.54946 1 10.001 1C13.4524 1 16.2558 3.48072 16.2558 6.53464C16.2558 9.58856 13.4473 12.0693 10.001 12.0693V12.0646ZM10.001 1.93967C7.12043 1.93967 4.77485 3.99754 4.77485 6.53464C4.77485 9.07174 7.12043 11.1296 10.001 11.1296C12.8815 11.1296 15.2271 9.06705 15.2271 6.53464C15.2271 4.00224 12.8815 1.93967 10.001 1.93967Z" fill="#F15D22" stroke="#F15D22" stroke-width="0.6"/>
</svg>
