<svg width="20" height="20" viewBox="0 0 20 20" fill="none" xmlns="http://www.w3.org/2000/svg">
<path d="M16.3 2.8H14.5V1.9C14.5 1.66131 14.4052 1.43239 14.2364 1.2636C14.0676 1.09482 13.8387 1 13.6 1C13.3613 1 13.1324 1.09482 12.9636 1.2636C12.7948 1.43239 12.7 1.66131 12.7 1.9V2.8H7.3V1.9C7.3 1.66131 7.20518 1.43239 7.0364 1.2636C6.86761 1.09482 6.63869 1 6.4 1C6.1613 1 5.93239 1.09482 5.7636 1.2636C5.59482 1.43239 5.5 1.66131 5.5 1.9V2.8H3.7C2.98392 2.8 2.29716 3.08446 1.79081 3.59081C1.28446 4.09716 1 4.78392 1 5.5V16.3C1 17.0161 1.28446 17.7028 1.79081 18.2092C2.29716 18.7155 2.98392 19 3.7 19H16.3C17.0161 19 17.7028 18.7155 18.2092 18.2092C18.7155 17.7028 19 17.0161 19 16.3V5.5C19 4.78392 18.7155 4.09716 18.2092 3.59081C17.7028 3.08446 17.0161 2.8 16.3 2.8ZM17.2 16.3C17.2 16.5387 17.1052 16.7676 16.9364 16.9364C16.7676 17.1052 16.5387 17.2 16.3 17.2H3.7C3.46131 17.2 3.23239 17.1052 3.0636 16.9364C2.89482 16.7676 2.8 16.5387 2.8 16.3V10H17.2V16.3ZM17.2 8.2H2.8V5.5C2.8 5.2613 2.89482 5.03239 3.0636 4.8636C3.23239 4.69482 3.46131 4.6 3.7 4.6H5.5V5.5C5.5 5.73869 5.59482 5.96761 5.7636 6.1364C5.93239 6.30518 6.1613 6.4 6.4 6.4C6.63869 6.4 6.86761 6.30518 7.0364 6.1364C7.20518 5.96761 7.3 5.73869 7.3 5.5V4.6H12.7V5.5C12.7 5.73869 12.7948 5.96761 12.9636 6.1364C13.1324 6.30518 13.3613 6.4 13.6 6.4C13.8387 6.4 14.0676 6.30518 14.2364 6.1364C14.4052 5.96761 14.5 5.73869 14.5 5.5V4.6H16.3C16.5387 4.6 16.7676 4.69482 16.9364 4.8636C17.1052 5.03239 17.2 5.2613 17.2 5.5V8.2Z" fill="#F15D22"/>
</svg>
