<svg width="48" height="48" viewBox="0 0 48 48" fill="none" xmlns="http://www.w3.org/2000/svg">
<path d="M23.1 45L7.5 35.7C6.6 35.1 6 34.2 6 33.15V14.85C6 13.8 6.6 12.75 7.5 12.3L22.5 3.45C22.95 3.15 23.4 3 24 3C24.6 3 25.05 3.15 25.5 3.45L40.5 12.3C41.4 12.9 42 13.8 42 14.85V24H39V14.85L24 6L9 14.85V33.15L24.75 42.45L23.1 45Z" fill="white" stroke="white"/>
<g clip-path="url(#clip0_2_1747)">
<path d="M43.872 39.2472L39.6247 35L43.872 30.7527C43.9534 30.6704 43.999 30.5592 43.999 30.4434C43.999 30.3276 43.9534 30.2165 43.872 30.1341L41.8656 28.1277C41.825 28.087 41.7768 28.0547 41.7238 28.0327C41.6707 28.0106 41.6138 27.9993 41.5563 27.9993C41.4988 27.9993 41.4419 28.0106 41.3888 28.0327C41.3358 28.0547 41.2875 28.087 41.247 28.1277L36.9997 32.375L32.7525 28.1277C32.6704 28.0457 32.5592 27.9996 32.4432 27.9996C32.3272 27.9996 32.2159 28.0457 32.1339 28.1277L30.1275 30.1341C30.0868 30.1747 30.0545 30.2229 30.0324 30.276C30.0104 30.329 29.999 30.386 29.999 30.4434C29.999 30.5009 30.0104 30.5578 30.0324 30.6109C30.0545 30.664 30.0868 30.7122 30.1275 30.7527L34.3747 35L30.1275 39.2472C30.0455 39.3293 29.9994 39.4405 29.9994 39.5566C29.9994 39.6726 30.0455 39.7838 30.1275 39.8659L32.1339 41.8722C32.1744 41.913 32.2226 41.9453 32.2757 41.9673C32.3288 41.9894 32.3857 42.0007 32.4432 42.0007C32.5006 42.0007 32.5576 41.9894 32.6106 41.9673C32.6637 41.9453 32.7119 41.913 32.7525 41.8722L36.9997 37.625L41.247 41.8722C41.329 41.9543 41.4403 42.0003 41.5563 42.0003C41.6723 42.0003 41.7836 41.9543 41.8656 41.8722L43.872 39.8659C43.9127 39.8253 43.945 39.7771 43.967 39.724C43.9891 39.6709 44.0004 39.614 44.0004 39.5566C44.0004 39.4991 43.9891 39.4422 43.967 39.3891C43.945 39.336 43.9127 39.2878 43.872 39.2472Z" fill="white"/>
</g>
<defs>
<clipPath id="clip0_2_1747">
<rect width="14" height="14" fill="white" transform="translate(30 28)"/>
</clipPath>
</defs>
</svg>
