<svg width="20" height="20" viewBox="0 0 20 20" fill="none" xmlns="http://www.w3.org/2000/svg">
<path d="M14.166 1.66797V3.33464M9.99935 1.66797V3.33464M5.83268 1.66797V3.33464M6.66602 12.5013H9.99935M6.66602 8.33464H13.3327M2.91602 13.3346V7.5013C2.91602 5.14464 2.91602 3.96547 3.64852 3.2338C4.38018 2.5013 5.55935 2.5013 7.91602 2.5013H12.0827C14.4393 2.5013 15.6185 2.5013 16.3502 3.2338C17.0827 3.96547 17.0827 5.14464 17.0827 7.5013V10.0013C17.0827 13.9296 17.0827 15.8938 15.8618 17.1138C14.6427 18.3346 12.6785 18.3346 8.74935 18.3346H7.91602C5.55935 18.3346 4.38018 18.3346 3.64852 17.6021C2.91602 16.8705 2.91602 15.6913 2.91602 13.3346Z" stroke="#F15D22" stroke-width="1.4" stroke-linecap="round" stroke-linejoin="round"/>
<path d="M17.082 12.0859C17.082 12.3595 17.0281 12.6304 16.9234 12.8832C16.8187 13.136 16.6653 13.3656 16.4718 13.5591C16.2784 13.7525 16.0487 13.906 15.796 14.0107C15.5432 14.1154 15.2723 14.1693 14.9987 14.1693C14.582 14.1693 14.092 14.0968 13.6879 14.2051C13.5112 14.2524 13.3501 14.3454 13.2208 14.4747C13.0915 14.604 12.9985 14.7651 12.9512 14.9418C12.8429 15.3459 12.9154 15.8368 12.9154 16.2526C12.9154 16.8051 12.6959 17.335 12.3052 17.7257C11.9145 18.1164 11.3846 18.3359 10.832 18.3359" stroke="#F15D22" stroke-width="1.4" stroke-linecap="round" stroke-linejoin="round"/>
</svg>
