<svg width="24" height="24" viewBox="0 0 24 24" fill="none" xmlns="http://www.w3.org/2000/svg">
<path d="M17.25 20.4031L15.3 18.4531L14.25 19.5031L17.25 22.5031L23.25 16.5031L22.2 15.4531L17.25 20.4031Z" fill="white" stroke="white"/>
<path d="M11.55 22.5L3.75 17.85C3.3 17.55 3 17.1 3 16.575V7.425C3 6.9 3.3 6.375 3.75 6.15L11.25 1.725C11.475 1.575 11.7 1.5 12 1.5C12.3 1.5 12.525 1.575 12.75 1.725L20.25 6.15C20.7 6.45 21 6.9 21 7.425V12H19.5V7.425L12 3L4.5 7.425V16.575L12.375 21.225L11.55 22.5Z" fill="white" stroke="white"/>
</svg>
