<svg width="22" height="22" viewBox="0 0 22 22" fill="none" xmlns="http://www.w3.org/2000/svg">
<rect width="22" height="22" rx="4" fill="#898989"/>
<path d="M15.5 7.5C15.6326 7.5 15.7598 7.55268 15.8536 7.64645C15.9473 7.74021 16 7.86739 16 8C16 8.13261 15.9473 8.25979 15.8536 8.35355C15.7598 8.44732 15.6326 8.5 15.5 8.5H15L14.9985 8.5355L14.532 15.071C14.514 15.3233 14.4011 15.5594 14.2161 15.7318C14.031 15.9042 13.7874 16 13.5345 16H9.465C9.21207 16 8.96853 15.9042 8.78344 15.7318C8.59835 15.5594 8.48546 15.3233 8.4675 15.071L8.001 8.536C8.00024 8.52402 7.99991 8.51201 8 8.5H7.5C7.36739 8.5 7.24021 8.44732 7.14645 8.35355C7.05268 8.25979 7 8.13261 7 8C7 7.86739 7.05268 7.74021 7.14645 7.64645C7.24021 7.55268 7.36739 7.5 7.5 7.5H15.5ZM13.9985 8.5H9.0015L9.4655 15H13.5345L13.9985 8.5ZM12.5 6C12.6326 6 12.7598 6.05268 12.8536 6.14645C12.9473 6.24021 13 6.36739 13 6.5C13 6.63261 12.9473 6.75979 12.8536 6.85355C12.7598 6.94732 12.6326 7 12.5 7H10.5C10.3674 7 10.2402 6.94732 10.1464 6.85355C10.0527 6.75979 10 6.63261 10 6.5C10 6.36739 10.0527 6.24021 10.1464 6.14645C10.2402 6.05268 10.3674 6 10.5 6H12.5Z" fill="white"/>
</svg>
