<svg width="21" height="18" viewBox="0 0 21 18" fill="none"
    xmlns="http://www.w3.org/2000/svg">
    <path d="M5.75 0.6875C3.12665 0.6875 1 2.81415 1 5.4375V11.375C1 12.6867 2.06332 13.75 3.375 13.75V12.5625C2.71916 12.5625 2.1875 12.0308 2.1875 11.375V5.4375C2.1875 3.46999 3.78249 1.875 5.75 1.875H14.0625C14.7183 1.875 15.25 2.40666 15.25 3.0625H16.4375C16.4375 1.75082 15.3742 0.6875 14.0625 0.6875H5.75ZM6.9375 4.25C5.62582 4.25 4.5625 5.31332 4.5625 6.625V14.9375C4.5625 16.2492 5.62582 17.3125 6.9375 17.3125H17.625C18.9367 17.3125 20 16.2492 20 14.9375V6.625C20 5.31332 18.9367 4.25 17.625 4.25H6.9375ZM5.75 6.625C5.75 5.96916 6.28166 5.4375 6.9375 5.4375H17.625C18.2808 5.4375 18.8125 5.96916 18.8125 6.625V14.9375C18.8125 15.5933 18.2808 16.125 17.625 16.125H6.9375C6.28166 16.125 5.75 15.5933 5.75 14.9375V6.625Z" fill="white" stroke="white" stroke-width="0.7" stroke-linecap="round" stroke-linejoin="round"/>
</svg>
