<svg width="20" height="20" viewBox="0 0 20 20" fill="none" xmlns="http://www.w3.org/2000/svg">
<g clip-path="url(#clip0_654_18547)">
<path d="M16.4034 1.71391H11.5628V1.56258C11.5628 1.14484 11.4001 0.752383 11.1052 0.458086C10.8104 0.162734 10.4179 0 10.0002 0C9.13857 0 8.4376 0.700977 8.4376 1.56254V1.71387H3.59654C2.84627 1.71387 2.23584 2.3243 2.23584 3.07457V18.6393C2.23584 19.3896 2.84627 20 3.59654 20H16.4034C17.1539 20 17.7645 19.3896 17.7645 18.6393V3.07461C17.7645 2.32434 17.1539 1.71391 16.4034 1.71391ZM9.22162 1.56258C9.22162 1.13332 9.57088 0.784063 10.0002 0.784063C10.2082 0.784063 10.4036 0.864961 10.5508 1.01254C10.6978 1.15922 10.7787 1.35457 10.7787 1.56258V3.82535H9.22162V1.56258ZM8.82959 4.60934H11.1707H15.0764V17.1045H4.92354V4.60934H8.82959ZM16.9804 18.6393C16.9804 18.9573 16.7215 19.216 16.4034 19.216H3.59654C3.27857 19.216 3.0199 18.9573 3.0199 18.6393V3.07461C3.0199 2.75664 3.27857 2.49793 3.59654 2.49793H8.4376V3.82531H4.53154C4.31502 3.82531 4.13951 4.00086 4.13951 4.21734V17.4966C4.13951 17.713 4.31502 17.8886 4.53154 17.8886H15.4685C15.685 17.8886 15.8605 17.713 15.8605 17.4966V4.21734C15.8605 4.00086 15.685 3.82531 15.4685 3.82531H11.5628V2.49793H16.4035C16.7217 2.49793 16.9805 2.75664 16.9805 3.07461V18.6393H16.9804Z" fill="#F15D22" stroke="#F15D22" stroke-width="0.4"/>
<path d="M13.7699 8.06792C13.6168 7.91487 13.3686 7.91483 13.2155 8.06796L8.47013 12.8137L6.78489 11.1288C6.63181 10.9758 6.3836 10.9758 6.23052 11.1289C6.07743 11.282 6.07747 11.5302 6.23056 11.6833L8.19306 13.6453C8.26962 13.7219 8.36989 13.7601 8.47021 13.7601C8.57052 13.7601 8.67087 13.7218 8.74739 13.6453L13.7699 8.62233C13.923 8.46925 13.923 8.22105 13.7699 8.06792Z" fill="#F15D22" stroke="#F15D22" stroke-width="0.2"/>
</g>
<defs>
<clipPath id="clip0_654_18547">
<rect width="20" height="20" fill="white"/>
</clipPath>
</defs>
</svg>
