<svg width="48" height="48" viewBox="0 0 48 48" fill="none" xmlns="http://www.w3.org/2000/svg">
<path d="M24 6C14.075 6 6 14.075 6 24C6 33.925 14.075 42 24 42C33.925 42 42 33.925 42 24C42 14.075 33.925 6 24 6ZM24 39.75C15.3153 39.75 8.25001 32.6847 8.25001 24C8.25001 15.3153 15.3153 8.25001 24 8.25001C32.6847 8.25001 39.75 15.3153 39.75 24C39.75 32.6847 32.6847 39.75 24 39.75Z" fill="white" stroke="white" stroke-width="0.5"/>
<path d="M25.125 12.75H22.875V24.4658L29.9546 31.5454L31.5454 29.9545L25.125 23.5341V12.75Z" fill="white" stroke="white" stroke-width="0.5"/>
</svg>
