<svg width="29" height="28" viewBox="0 0 29 28" fill="none" xmlns="http://www.w3.org/2000/svg">
<path d="M16.8063 1.0301L16.8003 1.02422C16.6909 0.909968 16.5399 0.846047 16.3824 0.847883C16.363 0.846965 16.3434 0.848802 16.3243 0.853945H7.40675C5.8038 0.854312 4.50463 2.16949 4.50391 3.79215V22.5966C4.50463 24.219 5.8038 25.5342 7.40675 25.5348H20.3362C21.9391 25.5342 23.2385 24.219 23.239 22.5966V7.77606C23.2379 7.62048 23.1777 7.47114 23.0706 7.35909L16.8063 1.0301ZM16.9629 2.85187L21.2708 7.20039H18.7047C17.744 7.19745 16.9657 6.40982 16.9629 5.43758V2.85187ZM20.342 24.3537H7.40675C6.44603 24.3509 5.66806 23.5631 5.66497 22.5907V3.78608C5.66806 2.81385 6.44603 2.02603 7.40675 2.02327H15.8019V5.43758C15.8024 7.05987 17.1018 8.37505 18.7047 8.37578H22.078V22.5907C22.0798 23.5627 21.3023 24.3524 20.342 24.3537Z" fill="#BDB8B8" stroke="#BDB8B8" stroke-width="0.5"/>
<g clip-path="url(#clip0_654_18510)">
<rect x="16.0176" y="17.4688" width="10.4064" height="10.5332" rx="1" fill="#F8F8F8"/>
<path d="M20.2524 22.0657L20.8126 21.4987V24.8298C20.8126 24.9462 20.8583 25.0579 20.9396 25.1402C21.0209 25.2225 21.1312 25.2687 21.2462 25.2687C21.3612 25.2687 21.4715 25.2225 21.5528 25.1402C21.6342 25.0579 21.6798 24.9462 21.6798 24.8298V21.4987L22.2405 22.0662C22.3218 22.1485 22.4322 22.1948 22.5473 22.1948C22.6623 22.1948 22.7727 22.1485 22.854 22.0662C22.9354 21.9838 22.9811 21.8721 22.9811 21.7557C22.9811 21.6392 22.9354 21.5275 22.854 21.4452L21.5532 20.1285C21.4719 20.0462 21.3616 20 21.2467 20C21.1317 20 21.0214 20.0462 20.9401 20.1285L19.6393 21.4452C19.5603 21.5279 19.5166 21.6388 19.5176 21.7539C19.5186 21.8689 19.5642 21.979 19.6446 22.0604C19.725 22.1418 19.8337 22.1879 19.9474 22.1889C20.0611 22.1899 20.1706 22.1457 20.2524 22.0657Z" fill="#BDB8B8"/>
<path d="M21.1308 26.8476C21.9714 26.8476 22.7931 26.5983 23.492 26.1313C24.1909 25.6643 24.7356 25.0006 25.0573 24.224C25.379 23.4474 25.4631 22.5929 25.2991 21.7685C25.1351 20.9441 24.7304 20.1868 24.136 19.5924C23.5416 18.9981 22.7844 18.5933 21.96 18.4293C21.1355 18.2653 20.281 18.3495 19.5044 18.6712C18.7279 18.9928 18.0641 19.5376 17.5971 20.2365C17.1301 20.9354 16.8809 21.7571 16.8809 22.5976C16.8821 23.7244 17.3303 24.8047 18.127 25.6014C18.9238 26.3982 20.004 26.8463 21.1308 26.8476ZM21.1308 19.1977C21.8033 19.1977 22.4606 19.3971 23.0197 19.7706C23.5789 20.1442 24.0147 20.6752 24.272 21.2965C24.5293 21.9178 24.5967 22.6014 24.4655 23.2609C24.3343 23.9205 24.0105 24.5263 23.535 25.0018C23.0595 25.4773 22.4537 25.8011 21.7941 25.9323C21.1346 26.0635 20.451 25.9961 19.8297 25.7388C19.2084 25.4815 18.6774 25.0457 18.3039 24.4865C17.9303 23.9274 17.7309 23.2701 17.7309 22.5976C17.7319 21.6962 18.0904 20.832 18.7278 20.1946C19.3652 19.5572 20.2294 19.1987 21.1308 19.1977Z" fill="#BDB8B8"/>
</g>
<defs>
<clipPath id="clip0_654_18510">
<rect x="16.0176" y="17.4688" width="10.4064" height="10.5332" rx="1" fill="white"/>
</clipPath>
</defs>
</svg>
