<svg width="22" height="22" viewBox="0 0 22 22" fill="none" xmlns="http://www.w3.org/2000/svg">
<rect width="22" height="22" rx="4" fill="#898989"/>
<path fill-rule="evenodd" clip-rule="evenodd" d="M13.05 5.99085C13.3644 5.67656 13.7908 5.5 14.2353 5.5C14.6798 5.5 15.1062 5.67656 15.4206 5.99085L15.5218 6.09208C15.8361 6.40646 16.0127 6.83286 16.0127 7.2774C16.0127 7.72194 15.8361 8.14828 15.5219 8.46266L8.70651 15.278C8.64243 15.3421 8.56214 15.3875 8.47422 15.4095L6.12128 15.9978C5.95089 16.0404 5.77065 15.9904 5.64646 15.8662C5.52227 15.7421 5.47234 15.5618 5.51494 15.3914L6.10317 13.0385C6.12515 12.9506 6.17061 12.8703 6.23469 12.8062L12.1166 6.92433C12.1164 6.92449 12.1167 6.92417 12.1166 6.92433C12.1167 6.92417 12.1174 6.92352 12.1175 6.92336L13.05 5.99085ZM12.4706 7.9845L7.03973 13.4154L6.68719 14.8255L8.09733 14.473L13.5282 9.0421L12.4706 7.9845ZM14.2353 8.335L13.1777 7.2774L13.757 6.69806C13.757 6.69808 13.7571 6.69804 13.757 6.69806C13.8839 6.57128 14.056 6.5 14.2353 6.5C14.4147 6.5 14.5867 6.57122 14.7135 6.69801C14.7135 6.69799 14.7135 6.69803 14.7135 6.69801L14.8146 6.79913C14.8146 6.79911 14.8147 6.79915 14.8146 6.79913M10.7941 15.5127C10.7941 15.2365 11.018 15.0127 11.2941 15.0127H16C16.2762 15.0127 16.5 15.2365 16.5 15.5127C16.5 15.7888 16.2762 16.0127 16 16.0127H11.2941C11.018 16.0127 10.7941 15.7888 10.7941 15.5127Z" fill="white"/>
</svg>
