<svg width="201" height="200" viewBox="0 0 201 200" fill="none" xmlns="http://www.w3.org/2000/svg">
<path d="M6.37569 168.404C13.794 186.506 25.8895 190.274 34.3937 186.506C50.8404 179.219 93.5632 171.077 137.441 190.215C195.555 215.563 207.919 177.32 189.373 138.637C170.826 99.9532 164.539 60.8338 185.92 39.2811C207.301 17.7285 179.322 -15.9876 129.634 19.1085C97.5232 41.7889 73.9578 36.7386 61.3033 30.327C49.3768 24.2842 36.1131 17.9669 23.6863 22.8995C8.60772 28.8849 2.66629 41.8617 25.6077 70.852C58.1175 111.934 -10.2533 127.828 6.37569 168.404Z" fill="#FAFAFA"/>
<path d="M36.5808 80.2227H152.032V169.011C152.032 169.192 151.96 169.365 151.832 169.493C151.704 169.621 151.531 169.693 151.35 169.693H37.2626C37.0818 169.693 36.9084 169.621 36.7805 169.493C36.6526 169.365 36.5808 169.192 36.5808 169.011V80.2227Z" fill="#DEE9FF"/>
<path d="M123.069 45.4258H69.3866L36.5808 80.2197H152.032L123.069 45.4258Z" fill="#CDDFFA"/>
<path d="M47.5157 31.5117L69.3862 45.4294L36.5805 80.2233L11.7275 61.3351L47.5157 31.5117Z" fill="#E8EFFC"/>
<path d="M144.939 31.5117L123.069 45.4294L152.031 80.2233L180.727 61.3351L144.939 31.5117Z" fill="#E8EFFC"/>
<path d="M83.4901 32.2233C84.1073 31.9306 84.5875 31.4108 84.8303 30.7724C85.0732 30.134 85.0599 29.4265 84.7932 28.7976L74.9546 5.59813C74.8153 5.26952 74.6109 4.97248 74.3538 4.72488C74.0967 4.47728 73.7922 4.28422 73.4586 4.15732C73.125 4.03043 72.7692 3.97231 72.4125 3.98646C72.0558 4.00061 71.7057 4.08673 71.3832 4.23966L69.4877 5.13845C69.1652 5.29137 68.877 5.50793 68.6403 5.77511C68.4036 6.04228 68.2234 6.35456 68.1105 6.69317C67.9976 7.03177 67.9544 7.38971 67.9833 7.74546C68.0123 8.10121 68.1129 8.44743 68.2791 8.7633L80.0131 31.0639C80.3312 31.6684 80.8706 32.1265 81.5185 32.3426C82.1665 32.5586 82.8729 32.5159 83.4901 32.2233Z" fill="#CDDFFA"/>
<path d="M95.8253 29.9714C96.272 29.9395 96.6891 29.7363 96.9895 29.4042C97.2898 29.0721 97.4503 28.6368 97.4373 28.1892L96.9513 11.6732C96.9444 11.4393 96.8903 11.2091 96.7921 10.9966C96.694 10.7842 96.554 10.5937 96.3804 10.4367C96.2068 10.2797 96.0033 10.1595 95.782 10.0832C95.5608 10.0068 95.3264 9.97606 95.0929 9.99265L93.7207 10.0904C93.4873 10.107 93.2597 10.1707 93.0515 10.2775C92.8434 10.3843 92.6589 10.5321 92.5093 10.712C92.3597 10.8918 92.2481 11.1001 92.181 11.3243C92.1139 11.5484 92.0929 11.7838 92.1191 12.0163L93.9773 28.4347C94.0276 28.8798 94.2479 29.2882 94.5923 29.5746C94.9367 29.861 95.3785 30.0031 95.8253 29.9714Z" fill="#CDDFFA"/>
<path d="M105.348 36.0781C106.576 36.7884 108.301 36.1366 109.258 34.6002L126.244 7.31997C127.259 5.69027 127.018 3.70398 125.715 2.95056L123.899 1.90056C122.596 1.147 120.754 1.92946 119.848 3.62189L104.678 31.952C103.824 33.5476 104.119 35.3676 105.348 36.0781Z" fill="#CDDFFA"/>
</svg>
