<svg width="20" height="20" viewBox="0 0 20 20" fill="none" xmlns="http://www.w3.org/2000/svg">
<g clip-path="url(#clip0_1_47)">
<path d="M17.8466 4.80363H13.627V2.15336C13.627 1.88364 13.4083 1.66498 13.1386 1.66498H6.86133C6.59161 1.66498 6.37295 1.88364 6.37295 2.15336V4.80363H2.15336C1.88364 4.80363 1.66498 5.02229 1.66498 5.29201V17.8466C1.66498 18.1163 1.88364 18.335 2.15336 18.335H17.8466C18.1163 18.335 18.335 18.1163 18.335 17.8466V5.29201C18.335 5.02229 18.1163 4.80363 17.8466 4.80363ZM7.34971 2.64174H12.6502V4.80363H7.34971V2.64174ZM17.3582 17.3582H2.64174V5.78038H6.86133H13.1386H17.3582V17.3582Z" fill="#545454" stroke="#545454" stroke-width="0.5"/>
<path d="M13.1403 11.0824H12.5342C12.4671 10.7333 12.3298 10.4089 12.137 10.1248L12.566 9.6957C12.7567 9.50497 12.7567 9.19576 12.566 9.00503C12.3752 8.81434 12.066 8.81434 11.8753 9.00507L11.4463 9.43409C11.1623 9.24128 10.8378 9.10401 10.4888 9.03688V8.4307C10.4888 8.16099 10.2701 7.94232 10.0004 7.94232C9.73066 7.94232 9.51199 8.16099 9.51199 8.4307V9.03688C9.16287 9.10405 8.83842 9.24128 8.55441 9.43412L8.12535 9.0051C7.93469 8.8144 7.62542 8.81437 7.43469 9.00507C7.24396 9.1958 7.24396 9.505 7.43469 9.69573L7.86375 10.1248C7.6709 10.4088 7.53367 10.7333 7.46653 11.0824H6.86039C6.59067 11.0824 6.37201 11.3011 6.37201 11.5708C6.37201 11.8405 6.59067 12.0592 6.86039 12.0592H7.46653C7.53373 12.4083 7.67093 12.7327 7.86375 13.0166L7.43469 13.4457C7.24396 13.6364 7.24396 13.9456 7.43469 14.1363C7.53005 14.2317 7.65505 14.2794 7.78004 14.2794C7.905 14.2794 8.03002 14.2317 8.12535 14.1363L8.55444 13.7073C8.83845 13.9001 9.1629 14.0374 9.51199 14.1045V14.7106C9.51199 14.9804 9.73066 15.199 10.0004 15.199C10.2701 15.199 10.4888 14.9804 10.4888 14.7106V14.1045C10.8378 14.0374 11.1623 13.9001 11.4463 13.7073L11.8753 14.1363C11.9707 14.2317 12.0956 14.2794 12.2206 14.2794C12.3456 14.2794 12.4706 14.2317 12.566 14.1363C12.7567 13.9456 12.7567 13.6364 12.566 13.4457L12.137 13.0167C12.3298 12.7327 12.467 12.4082 12.5342 12.0591H13.1403C13.41 12.0591 13.6287 11.8405 13.6287 11.5707C13.6287 11.301 13.41 11.0824 13.1403 11.0824ZM10.0004 13.1748C9.11588 13.1748 8.39631 12.4552 8.39631 11.5707C8.39631 10.6863 9.11588 9.96669 10.0004 9.96669C10.8849 9.96669 11.6044 10.6863 11.6044 11.5707C11.6044 12.4552 10.8849 13.1748 10.0004 13.1748Z" fill="#545454" stroke="#545454" stroke-width="0.5"/>
</g>
<defs>
<clipPath id="clip0_1_47">
<rect width="16.67" height="16.67" fill="white" transform="translate(1.66498 1.66498)"/>
</clipPath>
</defs>
</svg>
