<svg width="30" height="30" viewBox="0 0 30 30" fill="none" xmlns="http://www.w3.org/2000/svg">
<path d="M8.32137 16.9076C8.35053 16.9113 8.37804 16.9232 8.40063 16.942C8.42322 16.9608 8.43994 16.9857 8.4488 17.0137C8.56928 17.4164 8.72726 17.8069 8.92066 18.1801C8.93402 18.2067 8.93945 18.2365 8.93631 18.266C8.93316 18.2955 8.92157 18.3235 8.90292 18.3466L8.26066 19.1455C8.09459 19.348 8.01008 19.6053 8.02364 19.8669C8.0372 20.1284 8.14787 20.3756 8.33399 20.5599L9.41595 21.6418C9.59961 21.8282 9.84623 21.9393 10.1075 21.9534C10.3688 21.9674 10.6259 21.8834 10.8285 21.7179L11.6126 21.0867C11.6354 21.0676 11.6633 21.0555 11.6928 21.052C11.7223 21.0485 11.7522 21.0536 11.7788 21.0669C12.1585 21.2719 12.5576 21.4388 12.9702 21.5652C12.9986 21.5743 13.0236 21.5918 13.0421 21.6152C13.0606 21.6386 13.0716 21.6671 13.0739 21.6968L13.1806 22.6952C13.21 22.9541 13.3336 23.1932 13.5279 23.3669C13.7221 23.5405 13.9734 23.6367 14.234 23.6371H15.7632C16.0243 23.6365 16.2761 23.5398 16.4705 23.3654C16.6649 23.191 16.7883 22.9512 16.8172 22.6916L16.9236 21.6932C16.9263 21.6639 16.9376 21.6361 16.9562 21.6133C16.9748 21.5905 16.9997 21.5737 17.0279 21.5652C17.4394 21.4377 17.8378 21.271 18.2174 21.0672C18.2446 21.0538 18.275 21.0487 18.305 21.0524C18.335 21.0561 18.3633 21.0686 18.3863 21.0882L19.1653 21.7145C19.3679 21.8806 19.6251 21.9651 19.8867 21.9516C20.1483 21.938 20.3954 21.8273 20.5797 21.6412L21.6617 20.5593C21.8481 20.3756 21.9592 20.129 21.9732 19.8677C21.9873 19.6064 21.9033 19.3493 21.7377 19.1467L21.0855 18.3418C21.0677 18.3187 21.0571 18.2909 21.0548 18.2618C21.0526 18.2327 21.0589 18.2036 21.0729 18.178C21.264 17.8051 21.4213 17.4159 21.543 17.0149C21.5521 16.9862 21.5694 16.9607 21.5928 16.9416C21.6162 16.9225 21.6446 16.9106 21.6746 16.9073L22.7124 16.7967C22.9713 16.7673 23.2103 16.6437 23.384 16.4495C23.5577 16.2552 23.6539 16.0039 23.6543 15.7433V14.2141C23.6555 13.9525 23.5595 13.6997 23.3847 13.5049C23.21 13.3101 22.9691 13.1872 22.7088 13.1601L21.64 13.0459C21.6107 13.0418 21.5832 13.0295 21.5607 13.0103C21.5382 12.9912 21.5216 12.966 21.5129 12.9377C21.3874 12.551 21.2291 12.1758 21.0395 11.8161C21.0254 11.7898 21.0196 11.7598 21.0229 11.7301C21.0262 11.7004 21.0385 11.6724 21.0582 11.6499L21.7317 10.812C21.8978 10.6094 21.9823 10.3522 21.9687 10.0906C21.9552 9.82901 21.8445 9.5819 21.6584 9.3976L20.5764 8.31563C20.3925 8.12962 20.146 8.01877 19.8848 8.00471C19.6236 7.99065 19.3666 8.07439 19.1638 8.2396L18.2998 8.93776C18.2772 8.95548 18.2499 8.9662 18.2212 8.9686C18.1926 8.97101 18.1639 8.96499 18.1387 8.95129C17.7874 8.76904 17.4207 8.61818 17.0429 8.50047C17.0132 8.49161 16.9867 8.47441 16.9665 8.45091C16.9463 8.42742 16.9333 8.39861 16.929 8.36793L16.8139 7.26012C16.7849 7.00146 16.6616 6.76256 16.4676 6.58916C16.2735 6.41576 16.0222 6.32003 15.762 6.32031H14.2316C13.9704 6.32066 13.7184 6.4173 13.524 6.59174C13.3295 6.76617 13.2062 7.00617 13.1776 7.26583L13.0595 8.37033C13.0563 8.39978 13.0446 8.42766 13.0258 8.45056C13.007 8.47346 12.9819 8.49038 12.9537 8.49927C12.5744 8.61676 12.2063 8.76762 11.8537 8.95009C11.8272 8.96401 11.7972 8.96973 11.7675 8.96651C11.7378 8.9633 11.7097 8.9513 11.6869 8.93205L10.8294 8.2429C10.6269 8.07684 10.3696 7.99232 10.108 8.00588C9.84646 8.01944 9.59935 8.13011 9.41505 8.31623L8.33309 9.3982C8.1467 9.58185 8.0356 9.82847 8.02153 10.0898C8.00747 10.351 8.09146 10.6082 8.25705 10.8108L8.93478 11.6538C8.95367 11.6774 8.96512 11.7061 8.96769 11.7362C8.97026 11.7663 8.96383 11.7965 8.94921 11.823C8.76087 12.1811 8.60351 12.5546 8.47885 12.9395C8.46983 12.9683 8.4527 12.9939 8.42951 13.0132C8.40632 13.0325 8.37806 13.0447 8.34812 13.0483L7.28449 13.1622C7.02391 13.1889 6.78258 13.3117 6.60748 13.5065C6.43238 13.7013 6.33603 13.9543 6.33717 14.2162V15.7454C6.33691 15.9407 6.39057 16.1323 6.49225 16.299C6.578 16.4365 6.69361 16.5528 6.83051 16.6395C6.9674 16.7261 7.12206 16.7808 7.28298 16.7994L8.32137 16.9076ZM7.23941 15.7433V14.2141C7.2393 14.1753 7.25349 14.1379 7.27927 14.1089C7.30505 14.0799 7.34061 14.0614 7.37916 14.057L8.44129 13.943C8.64474 13.9219 8.83765 13.842 8.99656 13.7132C9.15546 13.5844 9.2735 13.4122 9.33631 13.2175C9.44518 12.8817 9.58274 12.556 9.74746 12.2438C9.8444 12.0612 9.8856 11.8542 9.86594 11.6485C9.84628 11.4427 9.76662 11.2472 9.63685 11.0864L8.95792 10.2418C8.93419 10.2121 8.92242 10.1745 8.92492 10.1366C8.92743 10.0986 8.94402 10.0629 8.97145 10.0366L10.0534 8.95459C10.0805 8.92638 10.1174 8.90955 10.1565 8.90754C10.1955 8.90553 10.2339 8.91849 10.2638 8.94377L11.1191 9.63142C11.2779 9.76282 11.472 9.84434 11.677 9.86573C11.8819 9.88712 12.0887 9.84743 12.2711 9.75164C12.5779 9.59362 12.8981 9.46288 13.2278 9.36093C13.4236 9.29886 13.5971 9.18101 13.727 9.02182C13.8569 8.86264 13.9375 8.66902 13.959 8.4647L14.0762 7.36681C14.08 7.32762 14.0982 7.29125 14.1274 7.26483C14.1566 7.23842 14.1946 7.22387 14.234 7.22405H15.7632C15.8019 7.22344 15.8394 7.23726 15.8685 7.26282C15.8975 7.28838 15.916 7.32384 15.9204 7.3623L16.0349 8.46801C16.0591 8.67226 16.1416 8.86521 16.2727 9.02378C16.4037 9.18235 16.5776 9.29981 16.7736 9.36213C17.1019 9.4643 17.4206 9.59504 17.726 9.75284C17.9073 9.84827 18.1126 9.88824 18.3163 9.86777C18.5201 9.8473 18.7134 9.7673 18.872 9.63773L19.737 8.94257C19.7668 8.9189 19.8043 8.90718 19.8422 8.90968C19.8802 8.91218 19.9158 8.92873 19.9423 8.9561L21.0242 10.0381C21.052 10.0651 21.0685 10.1015 21.0705 10.1402C21.0725 10.1789 21.0599 10.2169 21.035 10.2466L20.3603 11.0864C20.2286 11.2467 20.1477 11.4427 20.1278 11.6493C20.1079 11.8558 20.1501 12.0636 20.2488 12.2462C20.4133 12.5588 20.5506 12.885 20.6594 13.2211C20.7222 13.4143 20.8395 13.5851 20.9972 13.7132C21.1548 13.8412 21.3461 13.9209 21.5481 13.9427L22.6153 14.057C22.6535 14.0617 22.6887 14.0804 22.7141 14.1093C22.7396 14.1383 22.7535 14.1756 22.7533 14.2141V15.7433C22.7527 15.7819 22.7383 15.8189 22.7127 15.8478C22.6871 15.8766 22.652 15.8953 22.6138 15.9005L21.5832 16.0105C21.3763 16.031 21.18 16.1125 21.0195 16.2447C20.859 16.377 20.7413 16.5539 20.6816 16.7531C20.5755 17.1019 20.4387 17.4406 20.2725 17.7651C20.1771 17.9464 20.1372 18.1518 20.1577 18.3557C20.1782 18.5596 20.2583 18.753 20.388 18.9117L21.0356 19.7171C21.0594 19.7469 21.0711 19.7844 21.0686 19.8224C21.0661 19.8604 21.0495 19.896 21.0221 19.9224L19.9401 21.0044C19.9131 21.0321 19.8766 21.0486 19.838 21.0506C19.7993 21.0526 19.7613 21.0399 19.7316 21.0152L18.9502 20.3876C18.7896 20.2561 18.5936 20.175 18.387 20.1545C18.1804 20.1341 17.9724 20.1753 17.7891 20.2728C17.461 20.449 17.1167 20.5932 16.761 20.7035C16.563 20.7635 16.3872 20.8809 16.2559 21.0408C16.1247 21.2007 16.0437 21.3959 16.0234 21.6018L15.918 22.5936C15.9134 22.6326 15.8949 22.6685 15.8659 22.6949C15.8369 22.7212 15.7993 22.7362 15.7602 22.737H14.2316C14.193 22.7364 14.1559 22.722 14.127 22.6963C14.0982 22.6707 14.0795 22.6355 14.0744 22.5972L13.9686 21.6055C13.9488 21.399 13.8681 21.2031 13.7368 21.0426C13.6055 20.8821 13.4295 20.7642 13.2311 20.7038C12.8753 20.5945 12.5311 20.4505 12.2035 20.2737C12.0516 20.192 11.8817 20.1492 11.7091 20.1493C11.4666 20.1495 11.2315 20.2333 11.0434 20.3864L10.2578 21.0176C10.228 21.0413 10.1905 21.0531 10.1525 21.0506C10.1146 21.0481 10.0789 21.0315 10.0525 21.0041L8.97055 19.9221C8.94277 19.8951 8.92623 19.8586 8.92422 19.8199C8.92222 19.7813 8.9349 19.7432 8.95973 19.7135L9.60379 18.9123C9.73273 18.7528 9.81236 18.5592 9.83291 18.3552C9.85346 18.1511 9.81405 17.9455 9.7195 17.7636C9.55196 17.4398 9.41512 17.101 9.31076 16.7516C9.25118 16.5534 9.13425 16.3773 8.9747 16.2454C8.81515 16.1136 8.62013 16.032 8.41424 16.0108L7.38637 15.9014C7.36096 15.8984 7.33651 15.8899 7.31475 15.8765C7.29299 15.863 7.27445 15.845 7.26044 15.8236C7.2465 15.7991 7.23904 15.7714 7.23941 15.7433Z" fill="#454545" stroke="#454545"/>
<path d="M15.0014 18.812C15.7593 18.812 16.5002 18.5873 17.1303 18.1663C17.7605 17.7453 18.2517 17.1468 18.5417 16.4466C18.8318 15.7464 18.9077 14.9759 18.7598 14.2326C18.6119 13.4893 18.247 12.8065 17.711 12.2706C17.1751 11.7347 16.4923 11.3698 15.749 11.222C15.0056 11.0742 14.2352 11.1502 13.535 11.4403C12.8348 11.7304 12.2364 12.2216 11.8154 12.8518C11.3944 13.482 11.1698 14.2229 11.1699 14.9808C11.1713 15.9965 11.5754 16.9703 12.2936 17.6885C13.0119 18.4066 13.9857 18.8107 15.0014 18.812ZM15.0014 12.0505C15.5809 12.0504 16.1474 12.2222 16.6293 12.5441C17.1111 12.866 17.4867 13.3236 17.7086 13.8589C17.9304 14.3943 17.9885 14.9834 17.8755 15.5518C17.7625 16.1202 17.4835 16.6423 17.0737 17.0521C16.664 17.4619 16.142 17.7411 15.5736 17.8542C15.0052 17.9673 14.4161 17.9093 13.8807 17.6876C13.3453 17.4659 12.8876 17.0904 12.5656 16.6086C12.2436 16.1268 12.0717 15.5603 12.0717 14.9808C12.0723 14.2039 12.3811 13.459 12.9304 12.9097C13.4797 12.3603 14.2245 12.0513 15.0014 12.0505Z" fill="#454545" stroke="#454545"/>
<path d="M22.0065 4.13453L19.9903 5.03173C19.9362 5.05581 19.8873 5.09031 19.8466 5.13325C19.8058 5.1762 19.7739 5.22675 19.7527 5.28203C19.7315 5.33731 19.7213 5.39622 19.7229 5.45542C19.7244 5.51461 19.7376 5.57292 19.7617 5.62701C19.7857 5.68111 19.8202 5.72993 19.8632 5.7707C19.9061 5.81146 19.9567 5.84337 20.012 5.86459C20.0672 5.88582 20.1262 5.89595 20.1854 5.8944C20.2445 5.89286 20.3029 5.87967 20.357 5.8556L23.1204 4.62656C23.1745 4.6025 23.2234 4.56801 23.2642 4.52506C23.305 4.48211 23.3369 4.43154 23.3582 4.37625C23.3794 4.32095 23.3895 4.26201 23.388 4.20279C23.3864 4.14357 23.3732 4.08524 23.3491 4.03113L22.1198 1.26768C22.0712 1.15839 21.9811 1.07289 21.8695 1.03C21.7578 0.987102 21.6337 0.990321 21.5244 1.03895C21.4151 1.08757 21.3296 1.17763 21.2867 1.28929C21.2438 1.40096 21.247 1.52509 21.2956 1.63438L21.9091 3.014C19.166 1.42949 15.9615 0.836035 12.8329 1.33311C9.70422 1.83019 6.84151 3.38759 4.72454 5.74428C2.60757 8.10096 1.36501 11.1137 1.20512 14.2776C1.04522 17.4414 1.97771 20.5641 3.84629 23.1222C3.91692 23.2187 4.02299 23.2832 4.14116 23.3015C4.25934 23.3198 4.37994 23.2904 4.47643 23.2197C4.57293 23.1491 4.63742 23.043 4.65571 22.9249C4.674 22.8067 4.6446 22.6861 4.57397 22.5896C2.79466 20.154 1.92442 17.1722 2.11432 14.1619C2.30421 11.1516 3.54226 8.30285 5.61352 6.11016C7.68479 3.91748 10.4585 2.51933 13.4531 2.15844C16.4477 1.79755 19.4742 2.4967 22.0071 4.13453H22.0065Z" fill="#454545" stroke="#454545"/>
<path d="M26.1552 6.83117C26.1207 6.78233 26.0768 6.74085 26.026 6.70915C25.9753 6.67745 25.9188 6.65616 25.8597 6.64652C25.8007 6.63688 25.7404 6.63908 25.6822 6.653C25.624 6.66692 25.5692 6.69228 25.5209 6.72759C25.4726 6.76291 25.4319 6.80748 25.401 6.85871C25.3701 6.90993 25.3497 6.96679 25.341 7.02598C25.3323 7.08516 25.3355 7.14548 25.3504 7.20342C25.3652 7.26136 25.3914 7.31577 25.4275 7.36348C27.2018 9.79418 28.0711 12.7684 27.8851 15.772C27.6991 18.7757 26.4695 21.6199 24.4088 23.8131C22.3482 26.0064 19.586 27.4107 16.5998 27.7834C13.6136 28.1561 10.591 27.4738 8.05451 25.8543L10.0542 24.9646C10.1083 24.9405 10.1571 24.906 10.1979 24.8631C10.2387 24.8201 10.2706 24.7696 10.2918 24.7143C10.313 24.659 10.3231 24.6001 10.3216 24.5409C10.3201 24.4817 10.3069 24.4234 10.2828 24.3693C10.2587 24.3152 10.2242 24.2664 10.1813 24.2256C10.1383 24.1849 10.0878 24.153 10.0325 24.1317C9.97722 24.1105 9.9183 24.1004 9.85911 24.1019C9.79992 24.1035 9.74161 24.1167 9.68752 24.1407L7.00883 25.3325C6.92945 25.3531 6.85735 25.3954 6.80053 25.4545C6.73225 25.5183 6.68547 25.6018 6.66668 25.6933C6.64789 25.7849 6.65801 25.88 6.69563 25.9655L7.92497 28.729C7.97359 28.8382 8.06363 28.9237 8.17527 28.9665C8.2869 29.0094 8.411 29.0062 8.52025 28.9575C8.6295 28.9089 8.71496 28.8189 8.75783 28.7072C8.80069 28.5956 8.79746 28.4715 8.74883 28.3623L8.12244 26.9541C10.8667 28.5295 14.0688 29.1149 17.193 28.6125C20.3172 28.11 23.1741 26.55 25.286 24.1935C27.3979 21.837 28.6367 18.8269 28.7952 15.6665C28.9537 12.5061 28.0223 9.38711 26.1567 6.83117H26.1552Z" fill="#454545" stroke="#454545"/>
</svg>
