<svg width="66" height="66" viewBox="0 0 66 66" fill="none" xmlns="http://www.w3.org/2000/svg">
<circle cx="33" cy="33.0002" r="33" fill="#4376AF" fill-opacity="0.35"/>
<path d="M26.3211 34.9081C26.3503 34.9117 26.3778 34.9237 26.4004 34.9425C26.423 34.9613 26.4397 34.9862 26.4486 35.0142C26.569 35.4169 26.727 35.8074 26.9204 36.1806C26.9338 36.2071 26.9392 36.237 26.9361 36.2665C26.9329 36.296 26.9213 36.324 26.9027 36.3471L26.2604 37.146C26.0943 37.3485 26.0098 37.6058 26.0234 37.8673C26.037 38.1289 26.1476 38.376 26.3337 38.5603L27.4157 39.6423C27.5994 39.8287 27.846 39.9398 28.1073 39.9539C28.3686 39.9679 28.6257 39.8839 28.8283 39.7183L29.6124 39.0872C29.6352 39.0681 29.663 39.056 29.6925 39.0525C29.7221 39.049 29.752 39.0541 29.7786 39.0674C30.1583 39.2724 30.5574 39.4393 30.97 39.5657C30.9984 39.5748 31.0234 39.5922 31.0419 39.6157C31.0603 39.6391 31.0714 39.6675 31.0736 39.6973L31.1803 40.6957C31.2098 40.9546 31.3334 41.1937 31.5276 41.3673C31.7219 41.541 31.9732 41.6372 32.2338 41.6376H33.7629C34.0241 41.637 34.2759 41.5403 34.4703 41.3659C34.6647 41.1915 34.7881 40.9517 34.8169 40.6921L34.9233 39.6937C34.926 39.6644 34.9374 39.6366 34.9559 39.6138C34.9745 39.591 34.9995 39.5742 35.0276 39.5657C35.4392 39.4382 35.8376 39.2714 36.2172 39.0677C36.2443 39.0543 36.2748 39.0491 36.3048 39.0529C36.3348 39.0566 36.3631 39.0691 36.3861 39.0887L37.1651 39.715C37.3677 39.8811 37.6249 39.9656 37.8865 39.9521C38.1481 39.9385 38.3952 39.8278 38.5795 39.6417L39.6614 38.5597C39.8478 38.3761 39.9589 38.1295 39.973 37.8682C39.987 37.6069 39.9031 37.3498 39.7375 37.1472L39.0853 36.3423C39.0675 36.3192 39.0568 36.2914 39.0546 36.2623C39.0524 36.2332 39.0586 36.2041 39.0727 36.1785C39.2638 35.8056 39.4211 35.4164 39.5427 35.0154C39.5519 34.9866 39.5692 34.9612 39.5925 34.9421C39.6159 34.923 39.6443 34.9111 39.6743 34.9078L40.7121 34.7972C40.971 34.7678 41.2101 34.6442 41.3838 34.4499C41.5574 34.2557 41.6536 34.0044 41.654 33.7438V32.2146C41.6553 31.9529 41.5592 31.7001 41.3845 31.5053C41.2097 31.3106 40.9688 31.1877 40.7085 31.1606L39.6398 31.0464C39.6105 31.0423 39.583 31.03 39.5605 31.0108C39.5379 30.9917 39.5214 30.9665 39.5127 30.9382C39.3872 30.5515 39.2288 30.1762 39.0393 29.8166C39.0251 29.7903 39.0193 29.7603 39.0227 29.7306C39.026 29.7009 39.0383 29.6729 39.0579 29.6504L39.7315 28.8125C39.8975 28.6099 39.982 28.3527 39.9685 28.0911C39.9549 27.8295 39.8442 27.5824 39.6581 27.3981L38.5762 26.3161C38.3923 26.1301 38.1457 26.0193 37.8846 26.0052C37.6234 25.9911 37.3664 26.0749 37.1636 26.2401L36.2995 26.9383C36.2769 26.956 36.2496 26.9667 36.221 26.9691C36.1924 26.9715 36.1637 26.9655 36.1384 26.9518C35.7872 26.7695 35.4205 26.6187 35.0426 26.501C35.013 26.4921 34.9864 26.4749 34.9662 26.4514C34.9461 26.4279 34.933 26.3991 34.9287 26.3684L34.8136 25.2606C34.7847 25.002 34.6614 24.7631 34.4673 24.5896C34.2732 24.4162 34.022 24.3205 33.7617 24.3208H32.2313C31.9701 24.3212 31.7182 24.4178 31.5237 24.5922C31.3293 24.7667 31.2059 25.0067 31.1773 25.2663L31.0592 26.3708C31.056 26.4003 31.0443 26.4281 31.0255 26.451C31.0067 26.4739 30.9817 26.4909 30.9534 26.4998C30.5742 26.6172 30.2061 26.7681 29.8534 26.9506C29.827 26.9645 29.797 26.9702 29.7673 26.967C29.7376 26.9638 29.7095 26.9518 29.6866 26.9325L28.8292 26.2434C28.6266 26.0773 28.3694 25.9928 28.1078 26.0064C27.8462 26.0199 27.5991 26.1306 27.4148 26.3167L26.3328 27.3987C26.1465 27.5823 26.0354 27.829 26.0213 28.0902C26.0072 28.3515 26.0912 28.6087 26.2568 28.8112L26.9345 29.6543C26.9534 29.6779 26.9649 29.7066 26.9674 29.7367C26.97 29.7668 26.9636 29.797 26.949 29.8235C26.7606 30.1816 26.6033 30.5551 26.4786 30.94C26.4696 30.9688 26.4525 30.9944 26.4293 31.0137C26.4061 31.033 26.3778 31.0452 26.3479 31.0488L25.2842 31.1627C25.0237 31.1894 24.7823 31.3121 24.6072 31.507C24.4321 31.7018 24.3358 31.9548 24.3369 32.2167V33.7459C24.3367 33.9412 24.3903 34.1328 24.492 34.2995C24.5778 34.437 24.6934 34.5533 24.8303 34.64C24.9672 34.7266 25.1218 34.7813 25.2827 34.7999L26.3211 34.9081ZM25.2392 33.7438V32.2146C25.2391 32.1758 25.2532 32.1383 25.279 32.1094C25.3048 32.0804 25.3404 32.0619 25.3789 32.0574L26.441 31.9435C26.6445 31.9224 26.8374 31.8425 26.9963 31.7137C27.1552 31.5849 27.2733 31.4127 27.3361 31.218C27.4449 30.8822 27.5825 30.5564 27.7472 30.2443C27.8442 30.0617 27.8854 29.8547 27.8657 29.6489C27.846 29.4432 27.7664 29.2477 27.6366 29.0868L26.9577 28.2423C26.9339 28.2126 26.9222 28.175 26.9247 28.1371C26.9272 28.0991 26.9438 28.0634 26.9712 28.037L28.0532 26.9551C28.0803 26.9269 28.1171 26.91 28.1562 26.908C28.1953 26.906 28.2337 26.919 28.2635 26.9443L29.1189 27.6319C29.2777 27.7633 29.4717 27.8448 29.6767 27.8662C29.8817 27.8876 30.0884 27.8479 30.2709 27.7521C30.5777 27.5941 30.8978 27.4634 31.2275 27.3614C31.4234 27.2993 31.5969 27.1815 31.7267 27.0223C31.8566 26.8631 31.9372 26.6695 31.9588 26.4652L32.076 25.3673C32.0797 25.3281 32.098 25.2917 32.1272 25.2653C32.1564 25.2389 32.1944 25.2244 32.2338 25.2245H33.7629C33.8016 25.2239 33.8392 25.2377 33.8682 25.2633C33.8973 25.2889 33.9158 25.3243 33.9201 25.3628L34.0346 26.4685C34.0588 26.6728 34.1414 26.8657 34.2724 27.0243C34.4034 27.1828 34.5773 27.3003 34.7734 27.3626C35.1016 27.4648 35.4203 27.5955 35.7258 27.7533C35.907 27.8488 36.1123 27.8887 36.3161 27.8683C36.5199 27.8478 36.7131 27.7678 36.8718 27.6382L37.7367 26.9431C37.7665 26.9194 37.804 26.9077 37.842 26.9102C37.8799 26.9127 37.9156 26.9292 37.942 26.9566L39.024 28.0385C39.0517 28.0655 39.0683 28.102 39.0703 28.1407C39.0723 28.1794 39.0596 28.2174 39.0348 28.2471L38.3601 29.0868C38.2284 29.2472 38.1474 29.4432 38.1275 29.6498C38.1077 29.8563 38.1498 30.0641 38.2486 30.2467C38.413 30.5593 38.5504 30.8855 38.6591 31.2216C38.7219 31.4148 38.8393 31.5856 38.9969 31.7136C39.1546 31.8417 39.3459 31.9214 39.5478 31.9432L40.6151 32.0574C40.6533 32.0622 40.6885 32.0809 40.7139 32.1098C40.7393 32.1388 40.7532 32.1761 40.753 32.2146V33.7438C40.7524 33.7824 40.738 33.8194 40.7124 33.8483C40.6868 33.8771 40.6518 33.8958 40.6136 33.901L39.583 34.011C39.376 34.0315 39.1798 34.113 39.0193 34.2452C38.8587 34.3775 38.7411 34.5544 38.6813 34.7536C38.5753 35.1024 38.4384 35.4411 38.2723 35.7656C38.1769 35.9469 38.1369 36.1523 38.1574 36.3562C38.178 36.5601 38.2581 36.7535 38.3877 36.9122L39.0354 37.7176C39.0591 37.7474 39.0709 37.7849 39.0684 37.8229C39.0659 37.8608 39.0493 37.8965 39.0219 37.9229L37.9399 39.0048C37.9129 39.0326 37.8764 39.0491 37.8377 39.0511C37.7991 39.0531 37.7611 39.0404 37.7313 39.0157L36.9499 38.3881C36.7893 38.2566 36.5934 38.1755 36.3868 38.155C36.1802 38.1346 35.9722 38.1758 35.7889 38.2733C35.4608 38.4495 35.1165 38.5937 34.7607 38.704C34.5627 38.764 34.387 38.8814 34.2557 39.0413C34.1244 39.2012 34.0435 39.3964 34.0232 39.6023L33.9177 40.5941C33.9131 40.633 33.8947 40.669 33.8657 40.6954C33.8367 40.7217 33.7991 40.7367 33.7599 40.7375H32.2313C32.1927 40.7369 32.1556 40.7225 32.1268 40.6968C32.0979 40.6712 32.0793 40.636 32.0742 40.5977L31.9684 39.6059C31.9485 39.3995 31.8679 39.2036 31.7366 39.0431C31.6052 38.8826 31.4292 38.7647 31.2308 38.7043C30.875 38.595 30.5308 38.4509 30.2033 38.2742C30.0513 38.1925 29.8814 38.1497 29.7089 38.1498C29.4663 38.15 29.2312 38.2338 29.0432 38.3869L28.2575 39.0181C28.2278 39.0418 28.1903 39.0536 28.1523 39.0511C28.1143 39.0486 28.0786 39.032 28.0523 39.0045L26.9703 37.9226C26.9425 37.8956 26.926 37.8591 26.924 37.8204C26.922 37.7817 26.9347 37.7437 26.9595 37.714L27.6036 36.9128C27.7325 36.7533 27.8121 36.5597 27.8327 36.3557C27.8532 36.1516 27.8138 35.946 27.7193 35.7641C27.5517 35.4403 27.4149 35.1015 27.3105 34.7521C27.2509 34.5539 27.134 34.3778 26.9745 34.2459C26.8149 34.1141 26.6199 34.0324 26.414 34.0113L25.3861 33.9019C25.3607 33.8989 25.3363 33.8904 25.3145 33.877C25.2927 33.8635 25.2742 33.8455 25.2602 33.824C25.2463 33.7996 25.2388 33.7719 25.2392 33.7438Z" fill="white" stroke="white"/>
<path d="M33.0014 36.81C33.7593 36.8101 34.5002 36.5854 35.1303 36.1643C35.7605 35.7433 36.2517 35.1449 36.5417 34.4447C36.8318 33.7445 36.9077 32.974 36.7598 32.2307C36.6119 31.4873 36.247 30.8046 35.711 30.2687C35.1751 29.7328 34.4923 29.3679 33.749 29.2201C33.0056 29.0723 32.2352 29.1482 31.535 29.4383C30.8348 29.7284 30.2364 30.2196 29.8154 30.8498C29.3944 31.4801 29.1698 32.221 29.1699 32.9788C29.1713 33.9946 29.5754 34.9683 30.2936 35.6865C31.0119 36.4047 31.9857 36.8087 33.0014 36.81ZM33.0014 30.0485C33.5809 30.0485 34.1474 30.2202 34.6293 30.5422C35.1111 30.8641 35.4867 31.3216 35.7086 31.857C35.9304 32.3924 35.9885 32.9815 35.8755 33.5499C35.7625 34.1183 35.4835 34.6404 35.0737 35.0502C34.664 35.46 34.142 35.7391 33.5736 35.8522C33.0052 35.9653 32.4161 35.9074 31.8807 35.6857C31.3453 35.4639 30.8876 35.0884 30.5656 34.6066C30.2436 34.1248 30.0717 33.5584 30.0717 32.9788C30.0723 32.202 30.3811 31.4571 30.9304 30.9077C31.4797 30.3583 32.2245 30.0493 33.0014 30.0485Z" fill="white" stroke="white"/>
<path d="M40.0065 22.1348L37.9903 23.032C37.9362 23.0561 37.8873 23.0905 37.8466 23.1335C37.8058 23.1764 37.7739 23.227 37.7527 23.2823C37.7315 23.3376 37.7213 23.3965 37.7229 23.4557C37.7244 23.5149 37.7376 23.5732 37.7617 23.6273C37.7857 23.6814 37.8202 23.7302 37.8632 23.7709C37.9061 23.8117 37.9567 23.8436 38.012 23.8648C38.0672 23.8861 38.1262 23.8962 38.1854 23.8946C38.2445 23.8931 38.3029 23.8799 38.357 23.8558L41.1204 22.6268C41.1745 22.6027 41.2234 22.5683 41.2642 22.5253C41.305 22.4824 41.3369 22.4318 41.3582 22.3765C41.3794 22.3212 41.3895 22.2623 41.388 22.203C41.3864 22.1438 41.3732 22.0855 41.3491 22.0314L40.1198 19.2679C40.0712 19.1586 39.9811 19.0731 39.8695 19.0302C39.7578 18.9873 39.6337 18.9906 39.5244 19.0392C39.4151 19.0878 39.3296 19.1779 39.2867 19.2895C39.2438 19.4012 39.247 19.5253 39.2956 19.6346L39.9091 21.0142C37.166 19.4297 33.9615 18.8363 30.8329 19.3334C27.7042 19.8304 24.8415 21.3878 22.7245 23.7445C20.6076 26.1012 19.365 29.114 19.2051 32.2778C19.0452 35.4417 19.9777 38.5643 21.8463 41.1224C21.9169 41.2189 22.023 41.2834 22.1412 41.3017C22.2593 41.32 22.3799 41.2906 22.4764 41.22C22.5729 41.1493 22.6374 41.0433 22.6557 40.9251C22.674 40.8069 22.6446 40.6863 22.574 40.5898C20.7947 38.1542 19.9244 35.1725 20.1143 32.1622C20.3042 29.1519 21.5423 26.3031 23.6135 24.1104C25.6848 21.9177 28.4585 20.5196 31.4531 20.1587C34.4477 19.7978 37.4742 20.4969 40.0071 22.1348H40.0065Z" fill="white" stroke="white"/>
<path d="M44.1554 24.8351C44.1209 24.7862 44.077 24.7448 44.0263 24.7131C43.9756 24.6814 43.919 24.6601 43.86 24.6504C43.801 24.6408 43.7406 24.643 43.6824 24.6569C43.6242 24.6708 43.5694 24.6962 43.5211 24.7315C43.4729 24.7668 43.4321 24.8114 43.4012 24.8626C43.3703 24.9138 43.35 24.9707 43.3413 25.0299C43.3326 25.0891 43.3357 25.1494 43.3506 25.2073C43.3654 25.2653 43.3917 25.3197 43.4278 25.3674C45.202 27.7981 46.0713 30.7723 45.8853 33.776C45.6993 36.7796 44.4697 39.6238 42.4091 41.8171C40.3484 44.0103 37.5863 45.4146 34.6001 45.7873C31.6138 46.16 28.5912 45.4777 26.0548 43.8582L28.0545 42.9685C28.1086 42.9444 28.1574 42.9099 28.1981 42.867C28.2389 42.824 28.2708 42.7735 28.292 42.7182C28.3133 42.6629 28.3234 42.604 28.3218 42.5448C28.3203 42.4856 28.3071 42.4273 28.283 42.3732C28.259 42.3191 28.2245 42.2703 28.1815 42.2296C28.1386 42.1888 28.088 42.1569 28.0327 42.1357C27.9775 42.1144 27.9185 42.1043 27.8594 42.1058C27.8002 42.1074 27.7419 42.1206 27.6878 42.1446L25.0091 43.3364C24.9297 43.3571 24.8576 43.3993 24.8008 43.4584C24.7325 43.5222 24.6857 43.6057 24.6669 43.6972C24.6481 43.7888 24.6582 43.8839 24.6959 43.9694L25.9252 46.7329C25.9738 46.8421 26.0639 46.9276 26.1755 46.9704C26.2871 47.0133 26.4112 47.0101 26.5205 46.9615C26.6297 46.9128 26.7152 46.8228 26.7581 46.7112C26.8009 46.5995 26.7977 46.4754 26.7491 46.3662L26.1227 44.958C28.867 46.5334 32.069 47.1188 35.1932 46.6164C38.3174 46.1139 41.1744 44.5539 43.2863 42.1974C45.3982 39.8409 46.637 36.8308 46.7955 33.6704C46.9539 30.51 46.0225 27.391 44.157 24.8351H44.1554Z" fill="white" stroke="white"/>
</svg>
