<svg width="174" height="174" viewBox="0 0 174 174" fill="none" xmlns="http://www.w3.org/2000/svg">
<rect x="0.5" y="0.5" width="173" height="173" rx="2.5" fill="white"/>
<rect x="0.5" y="0.5" width="173" height="173" rx="2.5" stroke="#C9C9C9"/>
<path d="M116.81 72.3196L100.505 55.3772C100.273 55.1362 99.9533 55 99.6186 55H75.3172C72.5976 55 70.3851 57.2118 70.3851 59.9303V77.1539H60.5366C58.5021 77.1539 56.8467 78.8088 56.8467 80.843V99.311C56.8467 101.345 58.5021 103 60.5366 103H70.3851V114.078C70.3851 116.792 72.5974 119 75.3172 119H112.222C114.942 119 117.154 116.793 117.154 114.081V73.1731C117.154 72.8549 117.031 72.549 116.81 72.3196ZM99.9236 58.3226L113.308 72.2307H99.9236V58.3226ZM60.5366 100.539C59.8593 100.539 59.3082 99.9879 59.3082 99.311V80.843C59.3082 80.1661 59.8593 79.6154 60.5366 79.6154H93.7718C94.4494 79.6154 95.0004 80.1661 95.0004 80.843V99.311C95.0004 99.9879 94.4493 100.539 93.7718 100.539H60.5366ZM114.693 114.081C114.693 115.436 113.585 116.539 112.222 116.539H75.3172C73.9548 116.539 72.8467 115.435 72.8467 114.078V103H93.7718C95.8067 103 97.4621 101.345 97.4621 99.311V80.843C97.4621 78.8088 95.8067 77.1539 93.7718 77.1539H72.8466V59.9303C72.8466 58.5689 73.9547 57.4615 75.3171 57.4615H97.4619V73.4615C97.4619 74.1413 98.0131 74.6922 98.6927 74.6922H114.693V114.081Z" fill="#4376AF"/>
<path d="M83.0195 85.043V86.8312H86.1568V95.615H88.2912V86.8312H91.421V85.043H83.0195Z" fill="#4376AF"/>
<path d="M81.4114 86.2365C81.0028 85.7051 80.4954 85.3602 79.8899 85.2013C79.4954 85.0955 78.6493 85.043 77.3514 85.043H73.9258V95.615H76.0603V91.627H77.4523C78.4184 91.627 79.1567 91.5765 79.6662 91.4756C80.0413 91.3937 80.4102 91.2266 80.7732 90.9743C81.1359 90.722 81.4353 90.3746 81.671 89.9322C81.9064 89.4901 82.0243 88.9442 82.0243 88.2952C82.0243 87.4541 81.82 86.7676 81.4114 86.2365ZM79.5834 89.1463C79.4222 89.3817 79.1997 89.555 78.9163 89.6655C78.6325 89.7758 78.0702 89.8312 77.2285 89.8312H76.0603V86.8312H77.0917C77.8609 86.8312 78.3728 86.8552 78.6277 86.9032C78.9738 86.966 79.2599 87.122 79.4858 87.3721C79.712 87.622 79.8249 87.9395 79.8249 88.3241C79.8249 88.6365 79.7443 88.9106 79.5834 89.1463Z" fill="#4376AF"/>
<path d="M71.5598 86.2365C71.1512 85.7051 70.6441 85.3602 70.0382 85.2013C69.6441 85.0955 68.798 85.043 67.4997 85.043H64.0742V95.615H66.209V91.627H67.6006C68.5671 91.627 69.305 91.5765 69.8145 91.4756C70.1896 91.3937 70.5585 91.2266 70.9216 90.9743C71.2846 90.722 71.5837 90.3746 71.8195 89.9322C72.0551 89.4901 72.1727 88.9442 72.1727 88.2952C72.1727 87.4541 71.9685 86.7676 71.5598 86.2365ZM69.7318 89.1463C69.5706 89.3817 69.3485 89.555 69.0647 89.6655C68.7811 89.7758 68.2186 89.8312 67.3773 89.8312H66.209V86.8312H67.2401C68.0093 86.8312 68.5213 86.8552 68.7761 86.9032C69.1222 86.966 69.4083 87.122 69.6342 87.3721C69.8605 87.622 69.9733 87.9395 69.9733 88.3241C69.9735 88.6366 69.8928 88.9106 69.7318 89.1463Z" fill="#4376AF"/>
</svg>
