<svg width="20" height="20" viewBox="0 0 20 20" fill="none" xmlns="http://www.w3.org/2000/svg">
<path d="M6.83333 2C7.05435 2 7.26631 2.0878 7.42259 2.24408C7.57887 2.40036 7.66667 2.61232 7.66667 2.83333V16.1667C7.66667 16.3877 7.57887 16.5996 7.42259 16.7559C7.26631 16.9122 7.05435 17 6.83333 17C6.61232 17 6.40036 16.9122 6.24408 16.7559C6.0878 16.5996 6 16.3877 6 16.1667V2.83333C6 2.61232 6.0878 2.40036 6.24408 2.24408C6.40036 2.0878 6.61232 2 6.83333 2ZM13.5 2C13.721 2 13.933 2.0878 14.0893 2.24408C14.2455 2.40036 14.3333 2.61232 14.3333 2.83333V16.1667C14.3333 16.3877 14.2455 16.5996 14.0893 16.7559C13.933 16.9122 13.721 17 13.5 17C13.279 17 13.067 16.9122 12.9107 16.7559C12.7545 16.5996 12.6667 16.3877 12.6667 16.1667V2.83333C12.6667 2.61232 12.7545 2.40036 12.9107 2.24408C13.067 2.0878 13.279 2 13.5 2Z" fill="white"/>
</svg>
