<svg width="24" height="24" viewBox="0 0 24 24" fill="none" xmlns="http://www.w3.org/2000/svg">
<g clip-path="url(#clip0_654_29412)">
<path d="M17.4453 4.21875C17.1692 4.21875 16.9453 3.99489 16.9453 3.71875V1.90625C16.9453 1.63011 16.7215 1.40625 16.4453 1.40625H7.55469C7.27854 1.40625 7.05469 1.63011 7.05469 1.90625V3.71875C7.05469 3.99489 6.83083 4.21875 6.55469 4.21875H0.5C0.223858 4.21875 0 4.44261 0 4.71875V22.0938C0 22.3699 0.223858 22.5938 0.5 22.5938H23.5C23.7761 22.5938 24 22.3699 24 22.0938V4.71875C24 4.44261 23.7761 4.21875 23.5 4.21875H17.4453ZM8.46094 2.5C8.46094 2.22386 8.6848 2 8.96094 2H15.0391C15.3152 2 15.5391 2.22386 15.5391 2.5V3.71875C15.5391 3.99489 15.3152 4.21875 15.0391 4.21875H8.96094C8.6848 4.21875 8.46094 3.99489 8.46094 3.71875V2.5ZM22.5938 20.6875C22.5938 20.9636 22.3699 21.1875 22.0938 21.1875H1.90625C1.63011 21.1875 1.40625 20.9636 1.40625 20.6875V5.83754C1.40625 5.5614 1.63011 5.33754 1.90625 5.33754H3.74219C4.01833 5.33754 4.24219 5.5614 4.24219 5.83754V6.53125C4.24219 6.80739 4.46605 7.03125 4.74219 7.03125H5.14844C5.42458 7.03125 5.64844 6.80739 5.64844 6.53125V5.83754C5.64844 5.5614 5.87229 5.33754 6.14844 5.33754H17.8516C18.1277 5.33754 18.3516 5.5614 18.3516 5.83754V6.53125C18.3516 6.80739 18.5754 7.03125 18.8516 7.03125H19.2578C19.534 7.03125 19.7578 6.80739 19.7578 6.53125V5.83754C19.7578 5.5614 19.9817 5.33754 20.2578 5.33754H22.0938C22.3699 5.33754 22.5938 5.5614 22.5938 5.83754V20.6875Z" fill="white" stroke="white"/>
<path d="M14.9656 11.435L16.0106 10.39L15.0163 9.39563L13.9712 10.4407C13.593 10.1884 13.1641 10.0064 12.7031 9.91373V8.4375H11.2969V9.91378C10.836 10.0065 10.407 10.1884 10.0288 10.4407L8.98373 9.39563L7.98938 10.39L9.03441 11.435C8.78212 11.8133 8.60016 12.2422 8.50748 12.7031H7.03125V14.1094H8.50753C8.6002 14.5703 8.78217 14.9992 9.03445 15.3775L7.98942 16.4225L8.98378 17.4169L10.0288 16.3718C10.4071 16.6241 10.836 16.8061 11.2969 16.8987V18.375H12.7032V16.8987C13.1641 16.806 13.593 16.6241 13.9713 16.3718L15.0163 17.4168L16.0107 16.4225L14.9656 15.3774C15.2179 14.9992 15.3999 14.5703 15.4926 14.1093H16.9688V12.7031H15.4925C15.3998 12.2422 15.2179 11.8133 14.9656 11.435ZM12 15.5625C10.8111 15.5625 9.84375 14.5952 9.84375 13.4062C9.84375 12.2173 10.8111 11.25 12 11.25C13.1889 11.25 14.1562 12.2173 14.1562 13.4062C14.1562 14.5952 13.1889 15.5625 12 15.5625Z" fill="white"/>
</g>
<defs>
<clipPath id="clip0_654_29412">
<rect width="24" height="24" fill="white"/>
</clipPath>
</defs>
</svg>
