<svg width="26" height="26" viewBox="0 0 26 26" fill="none" xmlns="http://www.w3.org/2000/svg">
<g clip-path="url(#clip0_654_29436)">
<path d="M3.35025 1C2.05252 1.00091 1.00091 2.05252 1 3.35025V22.6509C1.00152 23.9477 2.05252 24.9984 3.34933 24.9999H22.6509C23.9474 24.9984 24.9984 23.9474 24.9999 22.6509V3.35025C24.9987 2.05313 23.948 1.00183 22.6509 1L3.35025 1ZM23.7516 3.35025V22.6509C23.7516 23.2587 23.2587 23.7516 22.6509 23.7516H3.35025C2.7421 23.7516 2.24954 23.2587 2.24924 22.6509V3.35025C2.24954 2.7421 2.7421 2.24954 3.35025 2.24924H22.6509C23.2587 2.24954 23.7516 2.7421 23.7516 3.35025Z" fill="white" stroke="white"/>
<path d="M10.3593 6.46094H7.20514C6.27432 6.46277 5.52038 7.2167 5.51855 8.14753V17.8602C5.52038 18.791 6.27432 19.545 7.20514 19.5468H10.3593C11.2902 19.545 12.0441 18.791 12.0459 17.8602V8.14753C12.0441 7.2167 11.2902 6.46277 10.3593 6.46094ZM10.7967 17.8602C10.7958 18.1015 10.6006 18.2967 10.3593 18.2976H7.20514C6.9639 18.2967 6.76871 18.1015 6.76779 17.8602V8.14753C6.76871 7.90628 6.9639 7.71109 7.20514 7.71017H10.3593C10.6006 7.71109 10.7958 7.90628 10.7967 8.14753V17.8602Z" fill="white" stroke="white"/>
<path d="M18.7944 6.46094H15.6402C14.7094 6.46246 13.9554 7.2167 13.9536 8.14753V17.8602C13.9554 18.791 14.7094 19.5453 15.6402 19.5468H18.7944C19.7252 19.5453 20.4795 18.791 20.481 17.8602V8.14753C20.4795 7.2167 19.7252 6.46246 18.7944 6.46094ZM19.2318 17.8602C19.2308 18.1015 19.0356 18.2967 18.7944 18.2976H15.6402C15.399 18.2967 15.2038 18.1015 15.2028 17.8602V8.14753C15.2038 7.90628 15.399 7.71109 15.6402 7.71017H18.7944C19.0356 7.71109 19.2308 7.90628 19.2318 8.14753V17.8602Z" fill="white" stroke="white"/>
</g>
<rect x="1" y="1" width="24" height="24" rx="3" stroke="white"/>
<defs>
<clipPath id="clip0_654_29436">
<rect x="1" y="1" width="24" height="24" rx="3" fill="white"/>
</clipPath>
</defs>
</svg>
