<svg width="24" height="24" viewBox="0 0 24 24" fill="none" xmlns="http://www.w3.org/2000/svg">
<g clip-path="url(#clip0_654_29423)">
<path d="M7.63537 2.17969H1.08992C0.487417 2.17969 -0.000976562 2.66813 -0.000976562 3.27064V9.81609C-0.000976562 10.4186 0.487417 10.907 1.08992 10.907H7.63537C8.23788 10.907 8.72628 10.4186 8.72628 9.81609V3.27064C8.72628 2.66813 8.23788 2.17969 7.63537 2.17969ZM6.54447 8.72514H2.18082V4.36154H6.54447V8.72514Z" fill="white"/>
<path d="M7.63537 13.0859H1.08992C0.487417 13.0859 -0.000976562 13.5744 -0.000976562 14.1768V20.7223C-0.000976562 21.3248 0.487417 21.8132 1.08992 21.8132H7.63537C8.23788 21.8132 8.72628 21.3248 8.72628 20.7223V14.1768C8.72628 13.5744 8.23788 13.0859 7.63537 13.0859ZM6.54447 19.6314H2.18082V15.2677H6.54447V19.6314Z" fill="white"/>
<path d="M22.9082 5.45312H11.9991C11.3966 5.45312 10.9082 5.94152 10.9082 6.54403C10.9082 7.14653 11.3966 7.63493 11.9991 7.63493H22.9082C23.5107 7.63493 23.9991 7.14653 23.9991 6.54403C23.9991 5.94152 23.5107 5.45312 22.9082 5.45312Z" fill="white"/>
<path d="M22.9082 16.3594H11.9991C11.3966 16.3594 10.9082 16.8478 10.9082 17.4503C10.9082 18.0528 11.3966 18.5412 11.9991 18.5412H22.9082C23.5107 18.5412 23.9991 18.0528 23.9991 17.4503C23.9991 16.8478 23.5107 16.3594 22.9082 16.3594Z" fill="white"/>
</g>
<defs>
<clipPath id="clip0_654_29423">
<rect width="24" height="24" fill="white" transform="translate(-0.000976562)"/>
</clipPath>
</defs>
</svg>
