<svg width="20" height="20" viewBox="0 0 20 20" fill="none" xmlns="http://www.w3.org/2000/svg">
<g clip-path="url(#clip0_654_17174)">
<path d="M2 6.06968V14.9302C2 15.1587 2.12188 15.3698 2.31973 15.484L9.99326 19.9143C10.1911 20.0286 10.4348 20.0285 10.6328 19.9143L18.3063 15.484C18.5042 15.3698 18.626 15.1587 18.626 14.9302V6.06968C18.626 5.8412 18.5042 5.63011 18.3063 5.5159L10.6327 1.08566C10.4349 0.971384 10.1911 0.971512 9.99326 1.08566L2.31973 5.5159C2.12188 5.63011 2 5.84126 2 6.06968ZM3.27892 7.17729L9.67353 10.8692V18.2531L3.27892 14.5611V7.17729ZM16.7077 6.06974L10.313 9.76167L7.75515 8.2849L14.1498 4.59297L16.7077 6.06974ZM10.9525 18.253V10.8692L17.3471 7.17729V14.5611L10.9525 18.253ZM10.313 2.37781L12.8708 3.85458L6.47623 7.54651L3.91838 6.06974L10.313 2.37781Z" fill="#F15D22" stroke="#F15D22" stroke-width="0.2"/>
<path d="M15.1413 12.6326L12.8609 13.9492C12.555 14.1258 12.4502 14.5169 12.6268 14.8227C12.8043 15.1314 13.1999 15.2318 13.5003 15.0568L15.7808 13.7402C16.0866 13.5636 16.1914 13.1725 16.0148 12.8667C15.8384 12.5609 15.4474 12.4561 15.1413 12.6326Z" fill="#F15D22" stroke="#F15D22" stroke-width="0.2"/>
</g>
<defs>
<clipPath id="clip0_654_17174">
<rect width="20" height="20" fill="white"/>
</clipPath>
</defs>
</svg>
