<svg width="16" height="20" viewBox="0 0 16 20" fill="none" xmlns="http://www.w3.org/2000/svg">
<path d="M13.5815 1.21094H7.59C7.18991 0.489502 6.42072 0 5.53906 0C4.65741 0 3.88821 0.489502 3.48813 1.21094H2.41406C1.12164 1.21094 0.0703125 2.26227 0.0703125 3.55469V17.6562C0.0703125 18.9487 1.12164 20 2.41406 20H13.5817C14.8739 20 15.9254 18.9487 15.9254 17.6562V3.55469C15.9253 2.26227 14.8739 1.21094 13.5815 1.21094ZM14.3628 17.6562C14.3628 18.087 14.0123 18.4375 13.5815 18.4375H2.41406C1.98331 18.4375 1.63281 18.087 1.63281 17.6562V3.55469C1.63281 3.12393 1.98331 2.77344 2.41406 2.77344H6.32031V8.35938C6.32031 8.79013 5.96982 9.14062 5.53906 9.14062C5.10831 9.14062 4.75781 8.79013 4.75781 8.35938V4.60938H3.19531V8.35938C3.19531 9.65179 4.24664 10.7031 5.53906 10.7031C6.83148 10.7031 7.88281 9.65179 7.88281 8.35938V2.77344H13.5817C14.0124 2.77344 14.3629 3.12393 14.3629 3.55469V17.6562H14.3628ZM3.19531 15.3125H9.64062V16.875H3.19531V15.3125ZM3.19531 12.2266H12.7656V13.7891H3.19531V12.2266ZM9.40625 9.17969H12.7656V10.7422H9.40625V9.17969ZM9.40625 6.09375H12.7656V7.65625H9.40625V6.09375Z" fill="#F15D22"/>
</svg>
