<svg width="20" height="20" viewBox="0 0 20 20" fill="none" xmlns="http://www.w3.org/2000/svg">
<path d="M13.4259 19.2464C12.4088 19.2464 11.4145 18.9448 10.5688 18.3797C9.72307 17.8146 9.06391 17.0114 8.67467 16.0717C8.28543 15.132 8.18359 14.098 8.38202 13.1004C8.58045 12.1028 9.07025 11.1864 9.78947 10.4672C10.5087 9.74798 11.425 9.25819 12.4226 9.05976C13.4202 8.86132 14.4542 8.96317 15.394 9.35241C16.3337 9.74165 17.1368 10.4008 17.7019 11.2465C18.267 12.0922 18.5686 13.0865 18.5686 14.1037C18.5686 15.4676 18.0268 16.7757 17.0624 17.7401C16.0979 18.7046 14.7899 19.2464 13.4259 19.2464ZM13.4259 10.2466C12.6631 10.2466 11.9174 10.4728 11.2831 10.8966C10.6488 11.3205 10.1544 11.9229 9.86248 12.6276C9.57055 13.3324 9.49417 14.1079 9.643 14.8561C9.79182 15.6043 10.1592 16.2916 10.6986 16.831C11.238 17.3704 11.9253 17.7378 12.6735 17.8866C13.4216 18.0354 14.1972 17.959 14.9019 17.6671C15.6067 17.3752 16.2091 16.8808 16.6329 16.2465C17.0567 15.6122 17.283 14.8665 17.283 14.1037C17.283 13.0807 16.8766 12.0997 16.1533 11.3763C15.4299 10.653 14.4489 10.2466 13.4259 10.2466Z" fill="#F15D22" stroke="#F15D22" stroke-width="0.4"/>
<path d="M14.4501 16.0311L12.7852 14.3662V11.5312H14.0708V13.839L15.3565 15.1247L14.4501 16.0311Z" fill="#F15D22" stroke="#F15D22" stroke-width="0.4"/>
<path d="M17.9282 3.82136C17.9282 3.48037 17.7927 3.15336 17.5516 2.91225C17.3105 2.67113 16.9835 2.53568 16.6425 2.53568H14.0711V1.25H12.7854V2.53568H7.64272V1.25H6.35704V2.53568H3.78568C3.4447 2.53568 3.11768 2.67113 2.87657 2.91225C2.63546 3.15336 2.5 3.48037 2.5 3.82136V16.6781C2.5 17.0191 2.63546 17.3461 2.87657 17.5873C3.11768 17.8284 3.4447 17.9638 3.78568 17.9638H6.35704V16.6781H3.78568V3.82136H6.35704V5.10704H7.64272V3.82136H12.7854V5.10704H14.0711V3.82136H16.6425V7.6784H17.9282V3.82136Z" fill="#F15D22" stroke="#F15D22" stroke-width="0.4"/>
</svg>
