<svg width="48" height="48" viewBox="0 0 48 48" fill="none" xmlns="http://www.w3.org/2000/svg">
<g clip-path="url(#clip0_2_1757)">
<path d="M15.2727 4.3636H2.1818C0.976788 4.3636 0 5.34048 0 6.5455V19.6364C0 20.8414 0.976788 21.8182 2.1818 21.8182H15.2727C16.4777 21.8182 17.4545 20.8414 17.4545 19.6364V6.5455C17.4545 5.34048 16.4777 4.3636 15.2727 4.3636ZM13.0909 17.4545H4.3636V8.7273H13.0909V17.4545Z" fill="white"/>
<path d="M15.2727 26.1818H2.1818C0.976788 26.1818 0 27.1587 0 28.3636V41.4545C0 42.6595 0.976788 43.6363 2.1818 43.6363H15.2727C16.4777 43.6363 17.4545 42.6595 17.4545 41.4545V28.3636C17.4545 27.1587 16.4777 26.1818 15.2727 26.1818ZM13.0909 39.2727H4.3636V30.5454H13.0909V39.2727Z" fill="white"/>
<path d="M45.8184 10.9091H24.0002C22.7951 10.9091 21.8184 11.8859 21.8184 13.0909C21.8184 14.2959 22.7951 15.2727 24.0002 15.2727H45.8184C47.0234 15.2727 48.0002 14.2959 48.0002 13.0909C48.0002 11.8859 47.0233 10.9091 45.8184 10.9091Z" fill="white"/>
<path d="M45.8184 32.7273H24.0002C22.7951 32.7273 21.8184 33.7041 21.8184 34.9091C21.8184 36.1141 22.7951 37.0909 24.0002 37.0909H45.8184C47.0234 37.0909 48.0002 36.1141 48.0002 34.9091C48.0002 33.7041 47.0233 32.7273 45.8184 32.7273Z" fill="white"/>
</g>
<defs>
<clipPath id="clip0_2_1757">
<rect width="48" height="48" fill="white"/>
</clipPath>
</defs>
</svg>
