<svg width="18" height="20" viewBox="0 0 18 20" fill="none" xmlns="http://www.w3.org/2000/svg">
<path d="M7.5112 18.4375H3.17969C2.31818 18.4375 1.61719 17.7365 1.61719 16.875V5.07812C1.61719 4.21661 2.31818 3.51562 3.17969 3.51562H5.63635V3.90625C5.63635 5.19867 6.68768 6.25 7.9801 6.25C9.27237 6.25 10.3239 5.19867 10.3239 3.90625V3.51562H12.7848C13.6463 3.51562 14.3473 4.21661 14.3473 5.07812V8.55469C14.3473 8.98621 14.697 9.33594 15.1285 9.33594C15.5599 9.33594 15.9098 8.98621 15.9098 8.55469V5.07812C15.9098 3.35495 14.5078 1.95312 12.7848 1.95312H10.3239V0.78125C10.3239 0.349731 9.97397 0 9.5426 0H6.4176C5.98608 0 5.63635 0.349731 5.63635 0.78125V1.95312H3.17969C1.45651 1.95312 0.0546875 3.35495 0.0546875 5.07812V16.875C0.0546875 18.5982 1.45651 20 3.17969 20H7.51135C7.94272 20 8.2926 19.6503 8.2926 19.2188C8.2926 18.7872 7.94272 18.4375 7.5112 18.4375ZM7.1987 1.5625H8.7612V3.90625C8.7612 4.33701 8.41071 4.6875 7.97995 4.6875C7.54919 4.6875 7.1987 4.33701 7.1987 3.90625V1.5625ZM13.2534 10.5469C10.6472 10.5469 8.52682 12.6672 8.52682 15.2734C8.52682 17.8796 10.6472 20 13.2534 20C15.8597 20 17.9799 17.8796 17.9799 15.2734C17.9799 12.6672 15.8597 10.5469 13.2534 10.5469ZM13.2534 18.4375C11.5087 18.4375 10.0893 17.0181 10.0893 15.2734C10.0893 13.5287 11.5087 12.1094 13.2534 12.1094C14.9981 12.1094 16.4174 13.5287 16.4174 15.2734C16.4174 17.0181 14.9981 18.4375 13.2534 18.4375ZM15.1674 15.2734C15.1674 15.705 14.8177 16.0547 14.3862 16.0547H13.2534C12.822 16.0547 12.4721 15.705 12.4721 15.2734V13.6719C12.4721 13.2404 12.822 12.8906 13.2534 12.8906C13.6849 12.8906 14.0346 13.2404 14.0346 13.6719V14.4922H14.3862C14.8177 14.4922 15.1674 14.8419 15.1674 15.2734Z" fill="#F15D22"/>
</svg>
