<svg width="23" height="24" viewBox="0 0 23 24" fill="none" xmlns="http://www.w3.org/2000/svg">
<path d="M7.45 12.2114C7.33065 12.2114 7.21619 12.2588 7.1318 12.3432C7.04741 12.4276 7 12.542 7 12.6614C7 12.7807 7.04741 12.8952 7.1318 12.9796C7.21619 13.0639 7.33065 13.1114 7.45 13.1114H16.1773L12.5494 16.3766C12.5044 16.4157 12.4676 16.4635 12.4412 16.517C12.4148 16.5705 12.3993 16.6288 12.3957 16.6883C12.392 16.7479 12.4002 16.8076 12.4198 16.864C12.4395 16.9203 12.4701 16.9722 12.51 17.0167C12.5498 17.0611 12.5982 17.0971 12.6521 17.1227C12.706 17.1482 12.7645 17.1628 12.8241 17.1655C12.8837 17.1683 12.9433 17.1591 12.9993 17.1386C13.0554 17.1182 13.1068 17.0867 13.1506 17.0462L17.6506 12.9962C17.6976 12.954 17.7352 12.9023 17.7609 12.8447C17.7866 12.787 17.7999 12.7245 17.7999 12.6614C17.7999 12.5982 17.7866 12.5357 17.7609 12.4781C17.7352 12.4204 17.6976 12.3688 17.6506 12.3266L13.1506 8.27656C13.0615 8.199 12.9454 8.1596 12.8275 8.16687C12.7096 8.17413 12.5993 8.22747 12.5203 8.31538C12.4414 8.40329 12.4002 8.51871 12.4057 8.63672C12.4111 8.75474 12.4627 8.86588 12.5494 8.94616L16.1773 12.2114H7.45Z" fill="#002856"/>
</svg>
