<svg xmlns="http://www.w3.org/2000/svg" width="24" height="23" viewBox="0 0 24 23" fill="none">
    <path d="M11.0398 16.0777C7.5838 16.0777 4.7998 13.4874 4.7998 10.2718C4.7998 7.05617 7.5838 4.46582 11.0398 4.46582C14.4958 4.46582 17.2798 7.05617 17.2798 10.2718C17.2798 13.4874 14.4958 16.0777 11.0398 16.0777ZM11.0398 5.35904C8.1118 5.35904 5.7598 7.54744 5.7598 10.2718C5.7598 12.9961 8.1118 15.1845 11.0398 15.1845C13.9678 15.1845 16.3198 12.9961 16.3198 10.2718C16.3198 7.54744 13.9678 5.35904 11.0398 5.35904Z" fill="black"/>
    <path d="M15.6875 13.9639L19.9979 17.9744L19.3192 18.606L15.0088 14.5954L15.6875 13.9639Z" fill="black"/>
</svg>