<svg width="16" height="15" viewBox="0 0 16 15" fill="none"
    xmlns="http://www.w3.org/2000/svg">
    <path fill-rule="evenodd" clip-rule="evenodd" d="M0.57178 8.57157H1.71466V6.28582C1.71466 3.45 4.02178 1.14288 6.8576 1.14288H10.8577V0H6.8576C3.3916 0 0.57178 2.81982 0.57178 6.28582V8.57157ZM14.8571 5.14775C15.4883 5.14775 16 4.63607 16 4.00488C16 3.37368 15.4883 2.862 14.8571 2.862C14.2259 2.862 13.7142 3.37368 13.7142 4.00488C13.7142 4.63607 14.2259 5.14775 14.8571 5.14775ZM9.14286 14.8557H5.14279V13.7128H9.14286C11.9787 13.7128 14.2858 11.4057 14.2858 8.56988V6.28413H15.4287V8.56988C15.4287 12.0359 12.6089 14.8557 9.14286 14.8557ZM5.14358 7.43013C5.14358 9.00565 6.42525 10.2873 8.00077 10.2873C9.57628 10.2873 10.858 9.00565 10.858 7.43013C10.858 5.85462 9.57628 4.57294 8.00077 4.57294C6.42525 4.57294 5.14358 5.85462 5.14358 7.43013ZM6.28645 7.43013C6.28645 6.4848 7.05544 5.71582 8.00077 5.71582C8.9461 5.71582 9.71508 6.4848 9.71508 7.43013C9.71508 8.37546 8.9461 9.14445 8.00077 9.14445C7.05544 9.14445 6.28645 8.37546 6.28645 7.43013ZM1.14288 11.9967C1.77407 11.9967 2.28575 11.485 2.28575 10.8539C2.28575 10.2227 1.77407 9.71098 1.14288 9.71098C0.511683 9.71098 0 10.2227 0 10.8539C0 11.485 0.511683 11.9967 1.14288 11.9967Z" fill="#002856"/>
</svg>
