<svg width="30" height="30" viewBox="0 0 30 30" fill="none" xmlns="http://www.w3.org/2000/svg">
<path d="M8.32137 16.9081C8.35053 16.9117 8.37804 16.9237 8.40063 16.9425C8.42322 16.9613 8.43994 16.9862 8.4488 17.0142C8.56928 17.4169 8.72726 17.8074 8.92066 18.1806C8.93402 18.2071 8.93945 18.237 8.93631 18.2665C8.93316 18.296 8.92157 18.324 8.90292 18.3471L8.26066 19.146C8.09459 19.3485 8.01008 19.6058 8.02364 19.8673C8.0372 20.1289 8.14787 20.376 8.33399 20.5603L9.41595 21.6423C9.59961 21.8287 9.84623 21.9398 10.1075 21.9539C10.3688 21.9679 10.6259 21.8839 10.8285 21.7183L11.6126 21.0872C11.6354 21.0681 11.6633 21.056 11.6928 21.0525C11.7223 21.049 11.7522 21.0541 11.7788 21.0674C12.1585 21.2724 12.5576 21.4393 12.9702 21.5657C12.9986 21.5748 13.0236 21.5922 13.0421 21.6157C13.0606 21.6391 13.0716 21.6675 13.0739 21.6973L13.1806 22.6957C13.21 22.9546 13.3336 23.1937 13.5279 23.3673C13.7221 23.541 13.9734 23.6372 14.234 23.6376H15.7632C16.0243 23.637 16.2761 23.5403 16.4705 23.3659C16.6649 23.1915 16.7883 22.9517 16.8172 22.6921L16.9236 21.6937C16.9263 21.6644 16.9376 21.6366 16.9562 21.6138C16.9748 21.591 16.9997 21.5742 17.0279 21.5657C17.4394 21.4382 17.8378 21.2714 18.2174 21.0677C18.2446 21.0543 18.275 21.0491 18.305 21.0529C18.335 21.0566 18.3633 21.0691 18.3863 21.0887L19.1653 21.715C19.3679 21.8811 19.6251 21.9656 19.8867 21.9521C20.1483 21.9385 20.3954 21.8278 20.5797 21.6417L21.6617 20.5597C21.8481 20.3761 21.9592 20.1295 21.9732 19.8682C21.9873 19.6069 21.9033 19.3498 21.7377 19.1472L21.0855 18.3423C21.0677 18.3192 21.0571 18.2914 21.0548 18.2623C21.0526 18.2332 21.0589 18.2041 21.0729 18.1785C21.264 17.8056 21.4213 17.4164 21.543 17.0154C21.5521 16.9866 21.5694 16.9612 21.5928 16.9421C21.6162 16.923 21.6446 16.9111 21.6746 16.9078L22.7124 16.7972C22.9713 16.7678 23.2103 16.6442 23.384 16.4499C23.5577 16.2557 23.6539 16.0044 23.6543 15.7438V14.2146C23.6555 13.9529 23.5595 13.7001 23.3847 13.5053C23.21 13.3106 22.9691 13.1877 22.7088 13.1606L21.64 13.0464C21.6107 13.0423 21.5832 13.03 21.5607 13.0108C21.5382 12.9917 21.5216 12.9665 21.5129 12.9382C21.3874 12.5515 21.2291 12.1762 21.0395 11.8166C21.0254 11.7903 21.0196 11.7603 21.0229 11.7306C21.0262 11.7009 21.0385 11.6729 21.0582 11.6504L21.7317 10.8125C21.8978 10.6099 21.9823 10.3527 21.9687 10.0911C21.9552 9.8295 21.8445 9.58239 21.6584 9.39809L20.5764 8.31612C20.3925 8.13011 20.146 8.01926 19.8848 8.0052C19.6236 7.99114 19.3666 8.07488 19.1638 8.24008L18.2998 8.93825C18.2772 8.95597 18.2499 8.96669 18.2212 8.96909C18.1926 8.9715 18.1639 8.96548 18.1387 8.95178C17.7874 8.76953 17.4207 8.61867 17.0429 8.50096C17.0132 8.4921 16.9867 8.4749 16.9665 8.4514C16.9463 8.4279 16.9333 8.3991 16.929 8.36842L16.8139 7.26061C16.7849 7.00195 16.6616 6.76305 16.4676 6.58965C16.2735 6.41624 16.0222 6.32052 15.762 6.3208H14.2316C13.9704 6.32115 13.7184 6.41779 13.524 6.59222C13.3295 6.76666 13.2062 7.00666 13.1776 7.26632L13.0595 8.37082C13.0563 8.40027 13.0446 8.42815 13.0258 8.45105C13.007 8.47395 12.9819 8.49087 12.9537 8.49976C12.5744 8.61725 12.2063 8.76811 11.8537 8.95057C11.8272 8.96449 11.7972 8.97021 11.7675 8.967C11.7378 8.96379 11.7097 8.95179 11.6869 8.93254L10.8294 8.24339C10.6269 8.07733 10.3696 7.99281 10.108 8.00637C9.84646 8.01993 9.59935 8.1306 9.41505 8.31672L8.33309 9.39869C8.1467 9.58234 8.0356 9.82896 8.02153 10.0902C8.00747 10.3515 8.09146 10.6087 8.25705 10.8112L8.93478 11.6543C8.95367 11.6779 8.96512 11.7066 8.96769 11.7367C8.97026 11.7668 8.96383 11.797 8.94921 11.8235C8.76087 12.1816 8.60351 12.5551 8.47885 12.94C8.46983 12.9688 8.4527 12.9944 8.42951 13.0137C8.40632 13.033 8.37806 13.0452 8.34812 13.0488L7.28449 13.1627C7.02391 13.1894 6.78258 13.3121 6.60748 13.507C6.43238 13.7018 6.33603 13.9548 6.33717 14.2167V15.7459C6.33691 15.9412 6.39057 16.1328 6.49225 16.2995C6.578 16.437 6.69361 16.5533 6.83051 16.64C6.9674 16.7266 7.12206 16.7813 7.28298 16.7999L8.32137 16.9081ZM7.23941 15.7438V14.2146C7.2393 14.1758 7.25349 14.1383 7.27927 14.1094C7.30505 14.0804 7.34061 14.0619 7.37916 14.0574L8.44129 13.9435C8.64474 13.9224 8.83765 13.8425 8.99656 13.7137C9.15546 13.5849 9.2735 13.4127 9.33631 13.218C9.44518 12.8822 9.58274 12.5564 9.74746 12.2443C9.8444 12.0617 9.8856 11.8547 9.86594 11.6489C9.84628 11.4432 9.76662 11.2477 9.63685 11.0868L8.95792 10.2423C8.93419 10.2126 8.92242 10.175 8.92492 10.1371C8.92743 10.0991 8.94402 10.0634 8.97145 10.037L10.0534 8.95508C10.0805 8.92686 10.1174 8.91004 10.1565 8.90803C10.1955 8.90602 10.2339 8.91897 10.2638 8.94426L11.1191 9.63191C11.2779 9.76331 11.472 9.84483 11.677 9.86622C11.8819 9.88761 12.0887 9.84792 12.2711 9.75213C12.5779 9.59411 12.8981 9.46337 13.2278 9.36142C13.4236 9.29935 13.5971 9.1815 13.727 9.02231C13.8569 8.86312 13.9375 8.66951 13.959 8.46519L14.0762 7.3673C14.08 7.32811 14.0982 7.29173 14.1274 7.26532C14.1566 7.23891 14.1946 7.22436 14.234 7.22454H15.7632C15.8019 7.22393 15.8394 7.23774 15.8685 7.2633C15.8975 7.28886 15.916 7.32433 15.9204 7.36279L16.0349 8.4685C16.0591 8.67275 16.1416 8.8657 16.2727 9.02427C16.4037 9.18283 16.5776 9.3003 16.7736 9.36262C17.1019 9.46479 17.4206 9.59553 17.726 9.75333C17.9073 9.84876 18.1126 9.88873 18.3163 9.86826C18.5201 9.84779 18.7134 9.76779 18.872 9.63822L19.737 8.94306C19.7668 8.91939 19.8043 8.90767 19.8422 8.91017C19.8802 8.91267 19.9158 8.92921 19.9423 8.95658L21.0242 10.0385C21.052 10.0655 21.0685 10.102 21.0705 10.1407C21.0725 10.1794 21.0599 10.2174 21.035 10.2471L20.3603 11.0868C20.2286 11.2472 20.1477 11.4432 20.1278 11.6498C20.1079 11.8563 20.1501 12.0641 20.2488 12.2467C20.4133 12.5593 20.5506 12.8855 20.6594 13.2216C20.7222 13.4148 20.8395 13.5856 20.9972 13.7136C21.1548 13.8417 21.3461 13.9214 21.5481 13.9432L22.6153 14.0574C22.6535 14.0622 22.6887 14.0809 22.7141 14.1098C22.7396 14.1388 22.7535 14.1761 22.7533 14.2146V15.7438C22.7527 15.7824 22.7383 15.8194 22.7127 15.8483C22.6871 15.8771 22.652 15.8958 22.6138 15.901L21.5832 16.011C21.3763 16.0315 21.18 16.113 21.0195 16.2452C20.859 16.3775 20.7413 16.5544 20.6816 16.7536C20.5755 17.1024 20.4387 17.4411 20.2725 17.7656C20.1771 17.9469 20.1372 18.1523 20.1577 18.3562C20.1782 18.5601 20.2583 18.7535 20.388 18.9122L21.0356 19.7176C21.0594 19.7474 21.0711 19.7849 21.0686 19.8229C21.0661 19.8608 21.0495 19.8965 21.0221 19.9229L19.9401 21.0048C19.9131 21.0326 19.8766 21.0491 19.838 21.0511C19.7993 21.0531 19.7613 21.0404 19.7316 21.0157L18.9502 20.3881C18.7896 20.2566 18.5936 20.1755 18.387 20.155C18.1804 20.1346 17.9724 20.1758 17.7891 20.2733C17.461 20.4495 17.1167 20.5937 16.761 20.704C16.563 20.764 16.3872 20.8814 16.2559 21.0413C16.1247 21.2012 16.0437 21.3964 16.0234 21.6023L15.918 22.5941C15.9134 22.633 15.8949 22.669 15.8659 22.6954C15.8369 22.7217 15.7993 22.7367 15.7602 22.7375H14.2316C14.193 22.7369 14.1559 22.7225 14.127 22.6968C14.0982 22.6712 14.0795 22.636 14.0744 22.5977L13.9686 21.6059C13.9488 21.3995 13.8681 21.2036 13.7368 21.0431C13.6055 20.8826 13.4295 20.7647 13.2311 20.7043C12.8753 20.595 12.5311 20.4509 12.2035 20.2742C12.0516 20.1925 11.8817 20.1497 11.7091 20.1498C11.4666 20.15 11.2315 20.2338 11.0434 20.3869L10.2578 21.0181C10.228 21.0418 10.1905 21.0536 10.1525 21.0511C10.1146 21.0486 10.0789 21.032 10.0525 21.0045L8.97055 19.9226C8.94277 19.8956 8.92623 19.8591 8.92422 19.8204C8.92222 19.7817 8.9349 19.7437 8.95973 19.714L9.60379 18.9128C9.73273 18.7533 9.81236 18.5597 9.83291 18.3557C9.85346 18.1516 9.81405 17.946 9.7195 17.7641C9.55196 17.4403 9.41512 17.1015 9.31076 16.7521C9.25118 16.5539 9.13425 16.3778 8.9747 16.2459C8.81515 16.1141 8.62013 16.0324 8.41424 16.0113L7.38637 15.9019C7.36096 15.8989 7.33651 15.8904 7.31475 15.877C7.29299 15.8635 7.27445 15.8455 7.26044 15.824C7.2465 15.7996 7.23904 15.7719 7.23941 15.7438Z" fill="white" stroke="white"/>
<path d="M15.0014 18.81C15.7593 18.8101 16.5002 18.5854 17.1303 18.1643C17.7605 17.7433 18.2517 17.1449 18.5417 16.4447C18.8318 15.7445 18.9077 14.974 18.7598 14.2307C18.6119 13.4873 18.247 12.8046 17.711 12.2687C17.1751 11.7328 16.4923 11.3679 15.749 11.2201C15.0056 11.0723 14.2352 11.1482 13.535 11.4383C12.8348 11.7284 12.2364 12.2196 11.8154 12.8498C11.3944 13.4801 11.1698 14.221 11.1699 14.9788C11.1713 15.9946 11.5754 16.9683 12.2936 17.6865C13.0119 18.4047 13.9857 18.8087 15.0014 18.81ZM15.0014 12.0485C15.5809 12.0485 16.1474 12.2202 16.6293 12.5422C17.1111 12.8641 17.4867 13.3216 17.7086 13.857C17.9304 14.3924 17.9885 14.9815 17.8755 15.5499C17.7625 16.1183 17.4835 16.6404 17.0737 17.0502C16.664 17.46 16.142 17.7391 15.5736 17.8522C15.0052 17.9653 14.4161 17.9074 13.8807 17.6857C13.3453 17.4639 12.8876 17.0884 12.5656 16.6066C12.2436 16.1248 12.0717 15.5584 12.0717 14.9788C12.0723 14.202 12.3811 13.4571 12.9304 12.9077C13.4797 12.3583 14.2245 12.0493 15.0014 12.0485Z" fill="white" stroke="white"/>
<path d="M22.0065 4.13477L19.9903 5.03198C19.9362 5.05605 19.8873 5.09055 19.8466 5.1335C19.8058 5.17644 19.7739 5.227 19.7527 5.28227C19.7315 5.33755 19.7213 5.39647 19.7229 5.45566C19.7244 5.51485 19.7376 5.57316 19.7617 5.62726C19.7857 5.68135 19.8202 5.73018 19.8632 5.77094C19.9061 5.8117 19.9567 5.84361 20.012 5.86484C20.0672 5.88606 20.1262 5.89619 20.1854 5.89465C20.2445 5.89311 20.3029 5.87992 20.357 5.85584L23.1204 4.62681C23.1745 4.60275 23.2234 4.56826 23.2642 4.52531C23.305 4.48235 23.3369 4.43179 23.3582 4.37649C23.3794 4.32119 23.3895 4.26225 23.388 4.20303C23.3864 4.14382 23.3732 4.08549 23.3491 4.03138L22.1198 1.26793C22.0712 1.15864 21.9811 1.07314 21.8695 1.03024C21.7578 0.987346 21.6337 0.990565 21.5244 1.03919C21.4151 1.08782 21.3296 1.17787 21.2867 1.28954C21.2438 1.4012 21.247 1.52533 21.2956 1.63462L21.9091 3.01424C19.166 1.42973 15.9615 0.836279 12.8329 1.33336C9.70422 1.83044 6.84151 3.38783 4.72454 5.74452C2.60757 8.10121 1.36501 11.114 1.20512 14.2778C1.04522 17.4417 1.97771 20.5643 3.84629 23.1224C3.91692 23.2189 4.02299 23.2834 4.14116 23.3017C4.25934 23.32 4.37994 23.2906 4.47643 23.22C4.57293 23.1493 4.63742 23.0433 4.65571 22.9251C4.674 22.8069 4.6446 22.6863 4.57397 22.5898C2.79466 20.1542 1.92442 17.1725 2.11432 14.1622C2.30421 11.1519 3.54226 8.30309 5.61352 6.11041C7.68479 3.91772 10.4585 2.51957 13.4531 2.15868C16.4477 1.79779 19.4742 2.49695 22.0071 4.13477H22.0065Z" fill="white" stroke="white"/>
<path d="M26.1552 6.83507C26.1207 6.78623 26.0768 6.74476 26.026 6.71306C25.9753 6.68135 25.9188 6.66006 25.8597 6.65042C25.8007 6.64078 25.7404 6.64299 25.6822 6.65691C25.624 6.67083 25.5692 6.69618 25.5209 6.7315C25.4726 6.76682 25.4319 6.81139 25.401 6.86261C25.3701 6.91384 25.3497 6.9707 25.341 7.02988C25.3323 7.08906 25.3355 7.14938 25.3504 7.20733C25.3652 7.26527 25.3914 7.31968 25.4275 7.36738C27.2018 9.79809 28.0711 12.7723 27.8851 15.776C27.6991 18.7796 26.4695 21.6238 24.4088 23.8171C22.3482 26.0103 19.586 27.4146 16.5998 27.7873C13.6136 28.16 10.591 27.4777 8.05451 25.8582L10.0542 24.9685C10.1083 24.9444 10.1571 24.9099 10.1979 24.867C10.2387 24.824 10.2706 24.7735 10.2918 24.7182C10.313 24.6629 10.3231 24.604 10.3216 24.5448C10.3201 24.4856 10.3069 24.4273 10.2828 24.3732C10.2587 24.3191 10.2242 24.2703 10.1813 24.2296C10.1383 24.1888 10.0878 24.1569 10.0325 24.1357C9.97722 24.1144 9.9183 24.1043 9.85911 24.1058C9.79992 24.1074 9.74161 24.1206 9.68752 24.1446L7.00883 25.3364C6.92945 25.3571 6.85735 25.3993 6.80053 25.4584C6.73225 25.5222 6.68547 25.6057 6.66668 25.6972C6.64789 25.7888 6.65801 25.8839 6.69563 25.9694L7.92497 28.7329C7.97359 28.8421 8.06363 28.9276 8.17527 28.9704C8.2869 29.0133 8.411 29.0101 8.52025 28.9615C8.6295 28.9128 8.71496 28.8228 8.75783 28.7112C8.80069 28.5995 8.79746 28.4754 8.74883 28.3662L8.12244 26.958C10.8667 28.5334 14.0688 29.1188 17.193 28.6164C20.3172 28.1139 23.1741 26.5539 25.286 24.1974C27.3979 21.8409 28.6367 18.8308 28.7952 15.6704C28.9537 12.51 28.0223 9.39102 26.1567 6.83507H26.1552Z" fill="white" stroke="white"/>
</svg>
