<svg width="20" height="20" viewBox="0 0 20 20" fill="none" xmlns="http://www.w3.org/2000/svg">
<path d="M17.7295 3.55136C17.6946 3.03929 17.4665 2.55958 17.0915 2.20922C16.7164 1.85887 16.2222 1.66402 15.709 1.66406H5.35898L5.22039 1.66856C4.70832 1.70369 4.2287 1.93196 3.87851 2.30721C3.52832 2.68246 3.33369 3.17669 3.33398 3.68996V17.6382L3.33848 17.7768C3.37339 18.2888 3.60143 18.7685 3.97652 19.1189C4.3516 19.4693 4.84573 19.6641 5.35898 19.6641H12.1702L10.8202 18.3141H5.35898L5.26718 18.3078C5.10559 18.2856 4.95749 18.2056 4.85028 18.0827C4.74306 17.9598 4.68399 17.8022 4.68398 17.6391V3.68996L4.69028 3.59816C4.71247 3.43656 4.79242 3.28846 4.91535 3.18125C5.03828 3.07404 5.19587 3.01497 5.35898 3.01496H15.709L15.8008 3.02126C15.9624 3.04345 16.1105 3.1234 16.2177 3.24633C16.3249 3.36925 16.384 3.52685 16.384 3.68996V14.1003L17.4271 13.0572C17.5231 12.9612 17.6251 12.8772 17.7331 12.8052V3.68906L17.7295 3.55136ZM14.3932 19.6632H14.3248C14.1576 19.6548 13.9994 19.5845 13.8811 19.4661L11.6311 17.2143C11.5046 17.0875 11.4336 16.9157 11.4338 16.7366C11.4339 16.5575 11.5052 16.3859 11.632 16.2594C11.7587 16.1329 11.9305 16.0619 12.1096 16.062C12.2887 16.0622 12.4604 16.1335 12.5869 16.2603L14.359 18.0342L18.382 14.0112C18.4443 13.9467 18.5188 13.8953 18.6012 13.86C18.6835 13.8247 18.7721 13.8061 18.8617 13.8053C18.9514 13.8046 19.0402 13.8217 19.1232 13.8557C19.2061 13.8897 19.2815 13.9398 19.3448 14.0033C19.4081 14.0667 19.4582 14.142 19.4921 14.225C19.526 14.308 19.5431 14.3969 19.5423 14.4865C19.5414 14.5761 19.5228 14.6647 19.4874 14.747C19.4519 14.8294 19.4005 14.9038 19.336 14.9661L14.836 19.4661C14.7179 19.5843 14.5601 19.6545 14.3932 19.6632ZM12.19 14.7141C12.1354 14.7116 12.0808 14.7116 12.0262 14.7141H9.85449C9.67546 14.7141 9.50378 14.6429 9.37719 14.5164C9.2506 14.3898 9.17949 14.2181 9.17949 14.0391C9.17949 13.86 9.2506 13.6884 9.37719 13.5618C9.50378 13.4352 9.67546 13.3641 9.85449 13.3641H14.3581C14.5371 13.3641 14.7088 13.4352 14.8354 13.5618C14.962 13.6884 15.0331 13.86 15.0331 14.0391C15.0331 14.2181 14.962 14.3898 14.8354 14.5164C14.7088 14.6429 14.5371 14.7141 14.3581 14.7141H12.19ZM7.83399 6.84086C7.83399 7.07956 7.73916 7.30848 7.57038 7.47726C7.4016 7.64604 7.17268 7.74086 6.93399 7.74086C6.69529 7.74086 6.46637 7.64604 6.29759 7.47726C6.12881 7.30848 6.03399 7.07956 6.03399 6.84086C6.03399 6.60217 6.12881 6.37325 6.29759 6.20447C6.46637 6.03568 6.69529 5.94086 6.93399 5.94086C7.17268 5.94086 7.4016 6.03568 7.57038 6.20447C7.73916 6.37325 7.83399 6.60217 7.83399 6.84086ZM9.18039 6.83906C9.18039 6.66004 9.2515 6.48835 9.37809 6.36177C9.50468 6.23518 9.67636 6.16406 9.85539 6.16406H14.359C14.538 6.16406 14.7097 6.23518 14.8363 6.36177C14.9629 6.48835 15.034 6.66004 15.034 6.83906C15.034 7.01808 14.9629 7.18977 14.8363 7.31636C14.7097 7.44295 14.538 7.51406 14.359 7.51406H9.85539C9.67636 7.51406 9.50468 7.44295 9.37809 7.31636C9.2515 7.18977 9.18039 7.01808 9.18039 6.83906ZM9.85539 9.76406C9.67636 9.76406 9.50468 9.83518 9.37809 9.96177C9.2515 10.0884 9.18039 10.26 9.18039 10.4391C9.18039 10.6181 9.2515 10.7898 9.37809 10.9164C9.50468 11.0429 9.67636 11.1141 9.85539 11.1141H14.359C14.4476 11.1141 14.5354 11.0966 14.6173 11.0627C14.6992 11.0288 14.7736 10.979 14.8363 10.9164C14.899 10.8537 14.9487 10.7793 14.9826 10.6974C15.0165 10.6155 15.034 10.5277 15.034 10.4391C15.034 10.3504 15.0165 10.2626 14.9826 10.1808C14.9487 10.0989 14.899 10.0244 14.8363 9.96177C14.7736 9.89909 14.6992 9.84937 14.6173 9.81544C14.5354 9.78152 14.4476 9.76406 14.359 9.76406H9.85539ZM6.93399 11.3391C7.17268 11.3391 7.4016 11.2442 7.57038 11.0755C7.73916 10.9067 7.83399 10.6778 7.83399 10.4391C7.83399 10.2004 7.73916 9.97145 7.57038 9.80267C7.4016 9.63388 7.17268 9.53906 6.93399 9.53906C6.69529 9.53906 6.46637 9.63388 6.29759 9.80267C6.12881 9.97145 6.03399 10.2004 6.03399 10.4391C6.03399 10.6778 6.12881 10.9067 6.29759 11.0755C6.46637 11.2442 6.69529 11.3391 6.93399 11.3391ZM7.83399 14.0373C7.83399 14.276 7.73916 14.5049 7.57038 14.6737C7.4016 14.8424 7.17268 14.9373 6.93399 14.9373C6.69529 14.9373 6.46637 14.8424 6.29759 14.6737C6.12881 14.5049 6.03399 14.276 6.03399 14.0373C6.03399 13.7986 6.12881 13.5696 6.29759 13.4009C6.46637 13.2321 6.69529 13.1373 6.93399 13.1373C7.17268 13.1373 7.4016 13.2321 7.57038 13.4009C7.73916 13.5696 7.83399 13.7986 7.83399 14.0373Z" fill="#F15D22" stroke="#F15D22" stroke-width="0.2"/>
</svg>
