<svg width="20" height="20" viewBox="0 0 20 20" fill="none" xmlns="http://www.w3.org/2000/svg">
<path d="M13.4259 19.2503C12.4088 19.2503 11.4145 18.9487 10.5688 18.3836C9.72307 17.8185 9.06391 17.0153 8.67467 16.0756C8.28543 15.1359 8.18359 14.1019 8.38202 13.1043C8.58045 12.1067 9.07025 11.1903 9.78947 10.4711C10.5087 9.75189 11.425 9.26209 12.4226 9.06366C13.4202 8.86523 14.4542 8.96707 15.394 9.35631C16.3337 9.74555 17.1368 10.4047 17.7019 11.2504C18.267 12.0961 18.5686 13.0904 18.5686 14.1076C18.5686 15.4715 18.0268 16.7796 17.0624 17.744C16.0979 18.7085 14.7899 19.2503 13.4259 19.2503ZM13.4259 10.2505C12.6631 10.2505 11.9174 10.4767 11.2831 10.9006C10.6488 11.3244 10.1544 11.9268 9.86248 12.6315C9.57055 13.3363 9.49417 14.1118 9.643 14.86C9.79182 15.6082 10.1592 16.2955 10.6986 16.8349C11.238 17.3743 11.9253 17.7417 12.6735 17.8905C13.4216 18.0393 14.1972 17.9629 14.9019 17.671C15.6067 17.3791 16.2091 16.8847 16.6329 16.2504C17.0567 15.6161 17.283 14.8704 17.283 14.1076C17.283 13.0846 16.8766 12.1036 16.1533 11.3802C15.4299 10.6569 14.4489 10.2505 13.4259 10.2505Z" fill="#F15D22" stroke="#F15D22" stroke-width="0.4"/>
<path d="M14.4501 16.035L12.7852 14.3701V11.5352H14.0708V13.843L15.3565 15.1286L14.4501 16.035Z" fill="#F15D22" stroke="#F15D22" stroke-width="0.4"/>
<path d="M17.9282 3.82136C17.9282 3.48037 17.7927 3.15336 17.5516 2.91225C17.3105 2.67113 16.9835 2.53568 16.6425 2.53568H14.0711V1.25H12.7854V2.53568H7.64272V1.25H6.35704V2.53568H3.78568C3.4447 2.53568 3.11768 2.67113 2.87657 2.91225C2.63546 3.15336 2.5 3.48037 2.5 3.82136V16.6781C2.5 17.0191 2.63546 17.3461 2.87657 17.5873C3.11768 17.8284 3.4447 17.9638 3.78568 17.9638H6.35704V16.6781H3.78568V3.82136H6.35704V5.10704H7.64272V3.82136H12.7854V5.10704H14.0711V3.82136H16.6425V7.6784H17.9282V3.82136Z" fill="#F15D22" stroke="#F15D22" stroke-width="0.4"/>
</svg>
