<svg width="20" height="20" viewBox="0 0 20 20" fill="none" xmlns="http://www.w3.org/2000/svg">
<path d="M8.57573 10.4144C8.57573 9.95152 8.1984 9.57505 7.73461 9.57505H6.74697V6.08397L7.41441 4.93066C7.44608 4.87585 7.45465 4.81054 7.43801 4.74938L6.73853 2.17566C6.7104 2.07202 6.6161 2 6.50859 2H5.10999C5.00235 2 4.90805 2.07202 4.87992 2.17566L4.18081 4.7495C4.16417 4.81054 4.17273 4.87585 4.20441 4.93066L4.87173 6.08422V9.57505H3.88409C3.42029 9.57505 3.04297 9.95152 3.04297 10.4144C3.04297 10.8773 3.42029 11.2539 3.88409 11.2539H3.99282C3.47888 11.9843 3.18154 13.0046 3.18154 14.0883C3.18154 14.8571 3.32966 15.6004 3.60975 16.2379C3.64889 16.3271 3.73634 16.3802 3.82819 16.3802C3.86011 16.3802 3.89253 16.3737 3.92371 16.3602C4.04431 16.3075 4.0991 16.1671 4.04627 16.0468C3.79248 15.4691 3.6583 14.792 3.6583 14.0883C3.6583 12.9507 4.00933 11.9006 4.60143 11.2539H7.01751C7.60937 11.9006 7.96039 12.9508 7.96039 14.0883C7.96039 15.0241 7.72544 15.9007 7.29895 16.5565C6.89313 17.1805 6.36414 17.5243 5.80947 17.5243C5.32097 17.5243 4.84042 17.2492 4.45637 16.75C4.37626 16.6457 4.22667 16.6261 4.12222 16.706C4.01777 16.7861 3.9982 16.9354 4.07831 17.0396C4.5547 17.6589 5.16943 18 5.80947 18C6.53109 18 7.20208 17.5793 7.69877 16.8155C8.17492 16.0835 8.43703 15.115 8.43703 14.0883C8.43703 13.0046 8.13982 11.9845 7.626 11.2539H7.73461C8.1984 11.2539 8.57573 10.8773 8.57573 10.4144ZM5.29223 2.47583H6.32622L6.95196 4.77844L6.37087 5.78258H5.24758L4.66674 4.77844L5.29223 2.47583ZM5.34837 6.25841H6.27021V9.57505H5.34837V6.25841ZM3.51961 10.4144C3.51961 10.2138 3.68313 10.0508 3.88409 10.0508H7.73461C7.93556 10.0508 8.09897 10.2138 8.09897 10.4144C8.09897 10.615 7.93556 10.7782 7.73461 10.7782H3.88396C3.68313 10.7782 3.51961 10.615 3.51961 10.4144Z" fill="#F15D22" stroke="#F15D22" stroke-width="0.5"/>
<path d="M16.9505 4.97367C16.9121 4.38273 16.707 3.81412 16.3573 3.32938C16.309 3.26237 16.2293 3.22538 16.1471 3.23099C16.0647 3.23685 15.9911 3.28483 15.9527 3.35795L15.0943 4.99246C15.0433 5.08902 14.979 5.17618 14.9035 5.25174C14.572 5.58243 14.0697 5.6586 13.6536 5.44119C13.1328 5.16849 12.9313 4.52347 13.2043 4.00358L14.0732 2.34989C14.1114 2.27726 14.1094 2.19035 14.068 2.11955C14.0266 2.04875 13.9518 2.00419 13.8697 2.00163C12.7458 1.96635 11.7083 2.50639 11.0938 3.44559C10.7556 3.96195 10.5765 4.56278 10.5762 5.18363C10.5762 5.6868 10.6973 6.18814 10.9263 6.6337C11.226 7.2167 11.3843 7.86087 11.3839 8.49636L11.3843 16.5526C11.3843 17.3507 12.0348 18 12.8345 18C13.6341 18 14.2847 17.3507 14.2847 16.5526V12.4321C14.2847 12.3008 14.178 12.1944 14.0464 12.1944C13.9148 12.1944 13.8081 12.3008 13.8081 12.4321V16.5526C13.8081 17.0884 13.3713 17.5243 12.8345 17.5243C12.2977 17.5243 11.8609 17.0884 11.8609 16.5526L11.8607 8.49648C11.861 7.78591 11.6845 7.06656 11.3505 6.41653C11.153 6.0325 11.0528 5.61771 11.0528 5.18387C11.0532 4.6558 11.2052 4.14481 11.4929 3.70597C11.9428 3.01798 12.6595 2.58195 13.46 2.49272L12.7823 3.78263C12.3872 4.53482 12.6787 5.46781 13.4323 5.86258C14.0341 6.17703 14.7608 6.0668 15.2404 5.58804C15.3499 5.47879 15.4425 5.35306 15.5161 5.21378L16.1805 3.94889C16.3502 4.27677 16.4508 4.63553 16.4748 5.00418C16.4787 5.06461 16.4804 5.11978 16.48 5.17496C16.4832 6.00613 16.1113 6.78079 15.4597 7.30032C14.4101 8.13723 13.8081 9.40639 13.8081 10.7825V11.6393C13.8081 11.7706 13.9147 11.8771 14.0464 11.8771C14.178 11.8771 14.2847 11.7706 14.2847 11.6393V10.7825C14.2847 9.55178 14.8214 8.41812 15.7573 7.67202C16.5232 7.06131 16.9604 6.15042 16.9567 5.17545C16.9571 5.11136 16.9551 5.04544 16.9505 4.97367Z" fill="#F15D22" stroke="#F15D22" stroke-width="0.5"/>
</svg>
