<svg width="12" height="12" viewBox="0 0 12 12" fill="none" xmlns="http://www.w3.org/2000/svg">
<path d="M4.5 3H10.125M4.5 6H7.875M4.5 9H10.125M2.625 9C2.625 9.09946 2.58549 9.19484 2.51516 9.26517C2.44484 9.33549 2.34946 9.375 2.25 9.375C2.15054 9.375 2.05516 9.33549 1.98484 9.26517C1.91451 9.19484 1.875 9.09946 1.875 9C1.875 8.90054 1.91451 8.80516 1.98484 8.73483C2.05516 8.66451 2.15054 8.625 2.25 8.625C2.34946 8.625 2.44484 8.66451 2.51516 8.73483C2.58549 8.80516 2.625 8.90054 2.625 9ZM2.625 6C2.625 6.09946 2.58549 6.19484 2.51516 6.26517C2.44484 6.33549 2.34946 6.375 2.25 6.375C2.15054 6.375 2.05516 6.33549 1.98484 6.26517C1.91451 6.19484 1.875 6.09946 1.875 6C1.875 5.90054 1.91451 5.80516 1.98484 5.73484C2.05516 5.66451 2.15054 5.625 2.25 5.625C2.34946 5.625 2.44484 5.66451 2.51516 5.73484C2.58549 5.80516 2.625 5.90054 2.625 6ZM2.625 3C2.625 3.09946 2.58549 3.19484 2.51516 3.26516C2.44484 3.33549 2.34946 3.375 2.25 3.375C2.15054 3.375 2.05516 3.33549 1.98484 3.26516C1.91451 3.19484 1.875 3.09946 1.875 3C1.875 2.90054 1.91451 2.80516 1.98484 2.73484C2.05516 2.66451 2.15054 2.625 2.25 2.625C2.34946 2.625 2.44484 2.66451 2.51516 2.73484C2.58549 2.80516 2.625 2.90054 2.625 3Z" stroke="#ABABAB" stroke-width="0.75" stroke-linecap="round"/>
</svg>
