<svg width="20" height="20" viewBox="0 0 20 20" fill="none" xmlns="http://www.w3.org/2000/svg">
<g clip-path="url(#clip0_654_18417)">
<path d="M3.18164 5.9092V14.6367M16.2728 14.6367V10.2729C16.2728 7.18778 16.2728 5.64411 15.3139 4.68627C14.3561 3.72734 12.8124 3.72734 9.72724 3.72734H8.63631M8.63631 3.72734C8.63631 2.96368 10.8116 1.53674 11.3636 1M8.63631 3.72734C8.63631 4.49099 10.8116 5.91793 11.3636 6.45467" stroke="#F15D22" stroke-width="1.5" stroke-linecap="round" stroke-linejoin="round"/>
<path d="M3.18187 19.0005C4.38688 19.0005 5.36374 18.0236 5.36374 16.8186C5.36374 15.6136 4.38688 14.6367 3.18187 14.6367C1.97686 14.6367 1 15.6136 1 16.8186C1 18.0236 1.97686 19.0005 3.18187 19.0005Z" stroke="#F15D22" stroke-width="1.5" stroke-linecap="round" stroke-linejoin="round"/>
<path d="M3.18187 5.91061C4.38688 5.91061 5.36374 4.93376 5.36374 3.72874C5.36374 2.52373 4.38688 1.54688 3.18187 1.54688C1.97686 1.54688 1 2.52373 1 3.72874C1 4.93376 1.97686 5.91061 3.18187 5.91061Z" stroke="#F15D22" stroke-width="1.5" stroke-linecap="round" stroke-linejoin="round"/>
<path d="M16.2717 19.0005C17.4767 19.0005 18.4536 18.0236 18.4536 16.8186C18.4536 15.6136 17.4767 14.6367 16.2717 14.6367C15.0667 14.6367 14.0898 15.6136 14.0898 16.8186C14.0898 18.0236 15.0667 19.0005 16.2717 19.0005Z" stroke="#F15D22" stroke-width="1.5" stroke-linecap="round" stroke-linejoin="round"/>
</g>
<defs>
<clipPath id="clip0_654_18417">
<rect width="20" height="20" fill="white"/>
</clipPath>
</defs>
</svg>
