<svg width="20" height="18" viewBox="0 0 20 18" fill="none" xmlns="http://www.w3.org/2000/svg">
<path d="M7.53811 7.26372C8.29697 7.26372 8.91215 6.64854 8.91215 5.88967C8.91215 5.13081 8.29697 4.51562 7.53811 4.51562C6.77924 4.51562 6.16406 5.13081 6.16406 5.88967C6.16406 6.64854 6.77924 7.26372 7.53811 7.26372Z" fill="#F15D22" stroke="#F15D22" stroke-width="0.3"/>
<path d="M18.8168 10.9461C18.1679 10.3354 17.3473 9.93461 16.4504 9.8201V2.83537C16.4504 2.0911 16.145 1.42316 15.6679 0.926974C15.1718 0.430791 14.5038 0.144531 13.7595 0.144531H2.69084C1.94656 0.144531 1.27863 0.449875 0.782443 0.926974C0.28626 1.42316 0 2.0911 0 2.83537V11.6331V12.4537V14.2285C0 14.9728 0.305343 15.6407 0.782443 16.1369C1.27863 16.6331 1.94656 16.9193 2.69084 16.9193H13.3969C14.1031 17.4919 14.9809 17.8545 15.9542 17.8545C17.0802 17.8545 18.0916 17.3964 18.8168 16.6712C19.542 15.9461 20 14.9346 20 13.8087C20 12.6827 19.542 11.6712 18.8168 10.9461ZM1.01145 2.83537C1.01145 2.37736 1.20229 1.95751 1.50763 1.65216C1.81298 1.34682 2.23282 1.15598 2.69084 1.15598H13.7595C14.2176 1.15598 14.6374 1.34682 14.9427 1.65216C15.2481 1.95751 15.4389 2.37736 15.4389 2.83537V8.78957L12.6145 5.98423C12.4237 5.79339 12.0992 5.7743 11.8893 5.98423L7.63359 10.259L4.75191 7.35827C4.56107 7.16743 4.23664 7.14835 4.02672 7.35827L1.01145 10.4117V2.83537ZM2.67176 15.927V15.9079C2.21374 15.9079 1.79389 15.717 1.48855 15.4117C1.20229 15.1064 1.01145 14.6865 1.01145 14.2285V12.4537V11.843L4.4084 8.44606L7.29008 11.3277C7.48092 11.5186 7.80534 11.5186 8.01527 11.3277L12.271 7.05293L15.0573 9.85827C15 9.87736 14.9427 9.89644 14.8855 9.91552C14.8092 9.93461 14.7328 9.95369 14.6374 9.99186C14.5611 10.0109 14.4847 10.0491 14.4084 10.0682C14.3511 10.0873 14.313 10.1064 14.2557 10.1445C14.1794 10.1827 14.1221 10.2018 14.0649 10.24C13.9695 10.2972 13.874 10.3545 13.7786 10.4117C13.7214 10.4499 13.6832 10.469 13.626 10.5071C13.5878 10.5262 13.5687 10.5453 13.5305 10.5644C13.3588 10.6789 13.2061 10.8125 13.0725 10.9651C12.3473 11.6903 11.8893 12.7018 11.8893 13.8277C11.8893 14.114 11.9275 14.3812 11.9847 14.6674C12.0038 14.7438 12.0229 14.801 12.042 14.8774C12.0992 15.0682 12.1565 15.259 12.2328 15.4499V15.469C12.3092 15.6216 12.3855 15.7934 12.4809 15.927H2.67176ZM18.0725 15.9461C17.5191 16.4995 16.7748 16.8239 15.9351 16.8239C15.1336 16.8239 14.3893 16.4995 13.855 15.9842C13.7786 15.9079 13.7023 15.8125 13.626 15.7361C13.5687 15.6789 13.5114 15.6025 13.4542 15.5453C13.3779 15.4499 13.3206 15.3354 13.2634 15.2209C13.2252 15.1445 13.187 15.0873 13.1489 15.0109C13.1107 14.9155 13.0725 14.801 13.0534 14.6865C13.0344 14.6102 12.9962 14.5148 12.9771 14.4384C12.9389 14.2476 12.9198 14.0377 12.9198 13.8277C12.9198 12.988 13.2634 12.2438 13.7977 11.6903C14.3511 11.1369 15.0954 10.8125 15.9351 10.8125C16.7748 10.8125 17.5191 11.156 18.0725 11.6903C18.626 12.2247 18.9504 12.988 18.9504 13.8277C18.9504 14.6483 18.6069 15.3926 18.0725 15.9461Z" fill="#F15D22" stroke="#F15D22" stroke-width="0.3"/>
<path d="M17.5952 13.2927H16.4311V12.1285C16.4311 11.8423 16.2021 11.6133 15.9158 11.6133C15.6296 11.6133 15.4006 11.8423 15.4006 12.1285V13.2927H14.2365C13.9502 13.2927 13.7212 13.5217 13.7212 13.8079C13.7212 14.0942 13.9502 14.3232 14.2365 14.3232H15.4006V15.4873C15.4006 15.7736 15.6296 16.0026 15.9158 16.0026C16.2021 16.0026 16.4311 15.7736 16.4311 15.4873V14.3232H17.5952C17.8815 14.3232 18.1105 14.0942 18.1105 13.8079C18.1105 13.5217 17.8815 13.2927 17.5952 13.2927Z" fill="#F15D22" stroke="#F15D22" stroke-width="0.3"/>
</svg>
