<svg width="20" height="20" viewBox="0 0 20 20" fill="none" xmlns="http://www.w3.org/2000/svg">
<path d="M15.5815 1.21094H9.59C9.18991 0.489502 8.42072 0 7.53906 0C6.65741 0 5.88821 0.489502 5.48813 1.21094H4.41406C3.12164 1.21094 2.07031 2.26227 2.07031 3.55469V17.6562C2.07031 18.9487 3.12164 20 4.41406 20H15.5817C16.8739 20 17.9254 18.9487 17.9254 17.6562V3.55469C17.9253 2.26227 16.8739 1.21094 15.5815 1.21094ZM16.3628 17.6562C16.3628 18.087 16.0123 18.4375 15.5815 18.4375H4.41406C3.98331 18.4375 3.63281 18.087 3.63281 17.6562V3.55469C3.63281 3.12393 3.98331 2.77344 4.41406 2.77344H8.32031V8.35938C8.32031 8.79013 7.96982 9.14062 7.53906 9.14062C7.10831 9.14062 6.75781 8.79013 6.75781 8.35938V4.60938H5.19531V8.35938C5.19531 9.65179 6.24664 10.7031 7.53906 10.7031C8.83148 10.7031 9.88281 9.65179 9.88281 8.35938V2.77344H15.5817C16.0124 2.77344 16.3629 3.12393 16.3629 3.55469V17.6562H16.3628ZM5.19531 15.3125H11.6406V16.875H5.19531V15.3125ZM5.19531 12.2266H14.7656V13.7891H5.19531V12.2266ZM11.4062 9.17969H14.7656V10.7422H11.4062V9.17969ZM11.4062 6.09375H14.7656V7.65625H11.4062V6.09375Z" fill="#F15D22"/>
</svg>
