<svg width="28" height="28" viewBox="0 0 28 28" fill="none" xmlns="http://www.w3.org/2000/svg">
<g clip-path="url(#clip0_654_28938)">
<path d="M14.0001 5.60156C9.36097 5.60156 5.6001 9.36244 5.6001 14.0016C5.6001 18.6409 9.36097 22.4016 14.0001 22.4016C18.6395 22.4016 22.4001 18.6409 22.4001 14.0016C22.3952 9.36449 18.6372 5.60669 14.0001 5.60156ZM12.6002 20.8601V17.6191C12.6002 17.37 12.4677 17.1395 12.2523 17.0142C11.2344 16.4353 10.5776 15.3815 10.5066 14.2125C10.4356 13.0436 10.9598 11.918 11.9001 11.2202V14.0016C11.9001 14.1874 11.9737 14.3653 12.1052 14.4968C12.2364 14.6281 12.4146 14.7016 12.6002 14.7016H15.4003C15.5859 14.7016 15.764 14.6281 15.8953 14.4968C16.0265 14.3653 16.1004 14.1874 16.1001 14.0016V11.2202C17.0406 11.918 17.5649 13.0436 17.4939 14.2125C17.4229 15.3815 16.7661 16.4353 15.7481 17.0142C15.5325 17.1395 15.4 17.37 15.4003 17.6191V20.8601C14.4764 21.0488 13.5241 21.0488 12.6002 20.8601ZM16.8002 20.4082V18.0021C18.3075 16.9598 19.1022 15.1592 18.8561 13.3433C18.61 11.527 17.3652 10.0028 15.6346 9.3991C15.4203 9.32424 15.1831 9.3568 14.997 9.48677C14.8109 9.61776 14.7002 9.83104 14.7002 10.0587V13.3017H13.3003V10.0587C13.3003 9.8313 13.1898 9.61802 13.0039 9.48677C12.8181 9.35552 12.5799 9.32296 12.3656 9.3991C10.6353 10.0028 9.39045 11.527 9.14436 13.3433C8.89827 15.1592 9.69269 16.9598 11.2003 18.0021V20.4085C8.16204 19.0824 6.47065 15.8075 7.14792 12.5627C7.8252 9.31783 10.6855 6.99276 14.0001 6.99276C17.3149 6.99276 20.1753 9.31783 20.8525 12.5627C21.5298 15.8075 19.8382 19.0824 16.8002 20.4085V20.4082Z" fill="white"/>
<mask id="path-2-outside-1_654_28938" maskUnits="userSpaceOnUse" x="-1" y="-1" width="30" height="30" fill="black">
<rect fill="white" x="-1" y="-1" width="30" height="30"/>
<path d="M27.3 11.2001H25.5617C25.2751 10.0006 24.8014 8.85399 24.1582 7.80194L25.3846 6.57557C25.6578 6.30231 25.6578 5.85883 25.3846 5.58556L22.4143 2.61551C22.1366 2.35302 21.7021 2.35302 21.4245 2.61551L20.1981 3.84188C19.1461 3.19845 17.9995 2.72498 16.8 2.43838V0.700085C16.8 0.514233 16.7264 0.336328 16.5952 0.204822C16.4637 0.0735718 16.2858 0 16.0999 0H11.8999C11.7143 0 11.5362 0.0735718 11.4049 0.204822C11.2737 0.336328 11.1998 0.514233 11.2001 0.700085V2.43838C10.0006 2.72498 8.85399 3.19845 7.80194 3.84188L6.57557 2.61551C6.30231 2.34199 5.85883 2.34199 5.58556 2.61551L2.61551 5.58556C2.34199 5.85883 2.34199 6.30231 2.61551 6.57557L3.84188 7.80194C3.19845 8.85399 2.72498 10.0006 2.43838 11.2001H0.700085C0.514233 11.1998 0.336328 11.2737 0.204822 11.4049C0.0735718 11.5362 0 11.7143 0 11.8999V16.0999C0 16.2858 0.0735718 16.4637 0.204822 16.5952C0.336328 16.7264 0.514233 16.8 0.700085 16.8H2.43838C2.72498 17.9995 3.19845 19.1461 3.84188 20.1981L2.61551 21.4245C2.34199 21.6978 2.34199 22.141 2.61551 22.4143L5.58582 25.3846C5.86344 25.6471 6.29795 25.6471 6.57557 25.3846L7.80194 24.1582C8.85399 24.8014 10.0006 25.2751 11.2001 25.5617V27.3C11.1998 27.4856 11.2737 27.6638 11.4049 27.795C11.5362 27.9265 11.7143 28.0001 11.8999 28.0001H16.0999C16.2858 28.0001 16.4637 27.9265 16.5952 27.795C16.7264 27.6638 16.8 27.4856 16.8 27.3V25.5617C17.9995 25.2751 19.1461 24.8014 20.1981 24.1582L21.4245 25.3846C21.6978 25.6578 22.141 25.6578 22.4143 25.3846L25.3846 22.4143C25.6581 22.141 25.6581 21.6978 25.3846 21.4245L24.1582 20.1981C24.8014 19.1461 25.2751 17.9995 25.5617 16.8H27.3C27.4856 16.8 27.6638 16.7264 27.795 16.5952C27.9265 16.4637 28.0001 16.2858 28.0001 16.0999V11.8999C28.0001 11.7143 27.9265 11.5362 27.795 11.4049C27.6638 11.2737 27.4856 11.1998 27.3 11.2001ZM26.5999 15.4001H24.9962C24.6601 15.4001 24.3715 15.6393 24.3087 15.9694C24.0441 17.3776 23.4914 18.7157 22.685 19.9C22.4955 20.1776 22.5307 20.5509 22.7685 20.7885L23.8998 21.9193L21.9195 23.8998L20.789 22.7685C20.5516 22.5301 20.1779 22.495 19.9003 22.685C18.7159 23.4914 17.3778 24.0441 15.9697 24.3087C15.6393 24.3712 15.4001 24.6599 15.4001 24.9962V26.5999H12.6V24.9962C12.6 24.6601 12.3608 24.3715 12.0307 24.3087C10.6225 24.0441 9.2844 23.4914 8.10007 22.685C7.82219 22.496 7.44921 22.5312 7.21132 22.7685L6.08082 23.8998L4.10028 21.9195L5.23154 20.789C5.46943 20.5514 5.5043 20.1782 5.31486 19.9003C4.50864 18.7159 3.95596 17.3778 3.69141 15.9697C3.62886 15.6393 3.33995 15.4001 3.00363 15.4001H1.39991V12.6H3.00363C3.33995 12.6 3.6286 12.3608 3.69141 12.0307C3.95596 10.6225 4.50864 9.2844 5.31486 8.10007C5.5043 7.82219 5.46943 7.44895 5.23154 7.21132L4.10028 6.08082L6.08057 4.10054L7.21106 5.2318C7.44869 5.46969 7.82194 5.50481 8.09982 5.31511C9.28389 4.5089 10.6223 3.95621 12.0301 3.69166C12.3608 3.62911 12.6 3.34021 12.6 3.00363V1.39991H15.4001V3.00363C15.4001 3.33995 15.6393 3.6286 15.9694 3.69141C17.3776 3.95596 18.7157 4.50864 19.9 5.31486C20.1774 5.50532 20.5514 5.47046 20.7885 5.23154L21.9193 4.10028L23.8995 6.08057L22.768 7.21106C22.5304 7.44869 22.4953 7.82194 22.6847 8.09982C23.4912 9.28389 24.0439 10.6223 24.3082 12.0301C24.371 12.3608 24.6599 12.6 24.9962 12.6H26.5999V15.4001Z"/>
</mask>
<path d="M27.3 11.2001H25.5617C25.2751 10.0006 24.8014 8.85399 24.1582 7.80194L25.3846 6.57557C25.6578 6.30231 25.6578 5.85883 25.3846 5.58556L22.4143 2.61551C22.1366 2.35302 21.7021 2.35302 21.4245 2.61551L20.1981 3.84188C19.1461 3.19845 17.9995 2.72498 16.8 2.43838V0.700085C16.8 0.514233 16.7264 0.336328 16.5952 0.204822C16.4637 0.0735718 16.2858 0 16.0999 0H11.8999C11.7143 0 11.5362 0.0735718 11.4049 0.204822C11.2737 0.336328 11.1998 0.514233 11.2001 0.700085V2.43838C10.0006 2.72498 8.85399 3.19845 7.80194 3.84188L6.57557 2.61551C6.30231 2.34199 5.85883 2.34199 5.58556 2.61551L2.61551 5.58556C2.34199 5.85883 2.34199 6.30231 2.61551 6.57557L3.84188 7.80194C3.19845 8.85399 2.72498 10.0006 2.43838 11.2001H0.700085C0.514233 11.1998 0.336328 11.2737 0.204822 11.4049C0.0735718 11.5362 0 11.7143 0 11.8999V16.0999C0 16.2858 0.0735718 16.4637 0.204822 16.5952C0.336328 16.7264 0.514233 16.8 0.700085 16.8H2.43838C2.72498 17.9995 3.19845 19.1461 3.84188 20.1981L2.61551 21.4245C2.34199 21.6978 2.34199 22.141 2.61551 22.4143L5.58582 25.3846C5.86344 25.6471 6.29795 25.6471 6.57557 25.3846L7.80194 24.1582C8.85399 24.8014 10.0006 25.2751 11.2001 25.5617V27.3C11.1998 27.4856 11.2737 27.6638 11.4049 27.795C11.5362 27.9265 11.7143 28.0001 11.8999 28.0001H16.0999C16.2858 28.0001 16.4637 27.9265 16.5952 27.795C16.7264 27.6638 16.8 27.4856 16.8 27.3V25.5617C17.9995 25.2751 19.1461 24.8014 20.1981 24.1582L21.4245 25.3846C21.6978 25.6578 22.141 25.6578 22.4143 25.3846L25.3846 22.4143C25.6581 22.141 25.6581 21.6978 25.3846 21.4245L24.1582 20.1981C24.8014 19.1461 25.2751 17.9995 25.5617 16.8H27.3C27.4856 16.8 27.6638 16.7264 27.795 16.5952C27.9265 16.4637 28.0001 16.2858 28.0001 16.0999V11.8999C28.0001 11.7143 27.9265 11.5362 27.795 11.4049C27.6638 11.2737 27.4856 11.1998 27.3 11.2001ZM26.5999 15.4001H24.9962C24.6601 15.4001 24.3715 15.6393 24.3087 15.9694C24.0441 17.3776 23.4914 18.7157 22.685 19.9C22.4955 20.1776 22.5307 20.5509 22.7685 20.7885L23.8998 21.9193L21.9195 23.8998L20.789 22.7685C20.5516 22.5301 20.1779 22.495 19.9003 22.685C18.7159 23.4914 17.3778 24.0441 15.9697 24.3087C15.6393 24.3712 15.4001 24.6599 15.4001 24.9962V26.5999H12.6V24.9962C12.6 24.6601 12.3608 24.3715 12.0307 24.3087C10.6225 24.0441 9.2844 23.4914 8.10007 22.685C7.82219 22.496 7.44921 22.5312 7.21132 22.7685L6.08082 23.8998L4.10028 21.9195L5.23154 20.789C5.46943 20.5514 5.5043 20.1782 5.31486 19.9003C4.50864 18.7159 3.95596 17.3778 3.69141 15.9697C3.62886 15.6393 3.33995 15.4001 3.00363 15.4001H1.39991V12.6H3.00363C3.33995 12.6 3.6286 12.3608 3.69141 12.0307C3.95596 10.6225 4.50864 9.2844 5.31486 8.10007C5.5043 7.82219 5.46943 7.44895 5.23154 7.21132L4.10028 6.08082L6.08057 4.10054L7.21106 5.2318C7.44869 5.46969 7.82194 5.50481 8.09982 5.31511C9.28389 4.5089 10.6223 3.95621 12.0301 3.69166C12.3608 3.62911 12.6 3.34021 12.6 3.00363V1.39991H15.4001V3.00363C15.4001 3.33995 15.6393 3.6286 15.9694 3.69141C17.3776 3.95596 18.7157 4.50864 19.9 5.31486C20.1774 5.50532 20.5514 5.47046 20.7885 5.23154L21.9193 4.10028L23.8995 6.08057L22.768 7.21106C22.5304 7.44869 22.4953 7.82194 22.6847 8.09982C23.4912 9.28389 24.0439 10.6223 24.3082 12.0301C24.371 12.3608 24.6599 12.6 24.9962 12.6H26.5999V15.4001Z" fill="white"/>
<path d="M27.3 11.2001H25.5617C25.2751 10.0006 24.8014 8.85399 24.1582 7.80194L25.3846 6.57557C25.6578 6.30231 25.6578 5.85883 25.3846 5.58556L22.4143 2.61551C22.1366 2.35302 21.7021 2.35302 21.4245 2.61551L20.1981 3.84188C19.1461 3.19845 17.9995 2.72498 16.8 2.43838V0.700085C16.8 0.514233 16.7264 0.336328 16.5952 0.204822C16.4637 0.0735718 16.2858 0 16.0999 0H11.8999C11.7143 0 11.5362 0.0735718 11.4049 0.204822C11.2737 0.336328 11.1998 0.514233 11.2001 0.700085V2.43838C10.0006 2.72498 8.85399 3.19845 7.80194 3.84188L6.57557 2.61551C6.30231 2.34199 5.85883 2.34199 5.58556 2.61551L2.61551 5.58556C2.34199 5.85883 2.34199 6.30231 2.61551 6.57557L3.84188 7.80194C3.19845 8.85399 2.72498 10.0006 2.43838 11.2001H0.700085C0.514233 11.1998 0.336328 11.2737 0.204822 11.4049C0.0735718 11.5362 0 11.7143 0 11.8999V16.0999C0 16.2858 0.0735718 16.4637 0.204822 16.5952C0.336328 16.7264 0.514233 16.8 0.700085 16.8H2.43838C2.72498 17.9995 3.19845 19.1461 3.84188 20.1981L2.61551 21.4245C2.34199 21.6978 2.34199 22.141 2.61551 22.4143L5.58582 25.3846C5.86344 25.6471 6.29795 25.6471 6.57557 25.3846L7.80194 24.1582C8.85399 24.8014 10.0006 25.2751 11.2001 25.5617V27.3C11.1998 27.4856 11.2737 27.6638 11.4049 27.795C11.5362 27.9265 11.7143 28.0001 11.8999 28.0001H16.0999C16.2858 28.0001 16.4637 27.9265 16.5952 27.795C16.7264 27.6638 16.8 27.4856 16.8 27.3V25.5617C17.9995 25.2751 19.1461 24.8014 20.1981 24.1582L21.4245 25.3846C21.6978 25.6578 22.141 25.6578 22.4143 25.3846L25.3846 22.4143C25.6581 22.141 25.6581 21.6978 25.3846 21.4245L24.1582 20.1981C24.8014 19.1461 25.2751 17.9995 25.5617 16.8H27.3C27.4856 16.8 27.6638 16.7264 27.795 16.5952C27.9265 16.4637 28.0001 16.2858 28.0001 16.0999V11.8999C28.0001 11.7143 27.9265 11.5362 27.795 11.4049C27.6638 11.2737 27.4856 11.1998 27.3 11.2001ZM26.5999 15.4001H24.9962C24.6601 15.4001 24.3715 15.6393 24.3087 15.9694C24.0441 17.3776 23.4914 18.7157 22.685 19.9C22.4955 20.1776 22.5307 20.5509 22.7685 20.7885L23.8998 21.9193L21.9195 23.8998L20.789 22.7685C20.5516 22.5301 20.1779 22.495 19.9003 22.685C18.7159 23.4914 17.3778 24.0441 15.9697 24.3087C15.6393 24.3712 15.4001 24.6599 15.4001 24.9962V26.5999H12.6V24.9962C12.6 24.6601 12.3608 24.3715 12.0307 24.3087C10.6225 24.0441 9.2844 23.4914 8.10007 22.685C7.82219 22.496 7.44921 22.5312 7.21132 22.7685L6.08082 23.8998L4.10028 21.9195L5.23154 20.789C5.46943 20.5514 5.5043 20.1782 5.31486 19.9003C4.50864 18.7159 3.95596 17.3778 3.69141 15.9697C3.62886 15.6393 3.33995 15.4001 3.00363 15.4001H1.39991V12.6H3.00363C3.33995 12.6 3.6286 12.3608 3.69141 12.0307C3.95596 10.6225 4.50864 9.2844 5.31486 8.10007C5.5043 7.82219 5.46943 7.44895 5.23154 7.21132L4.10028 6.08082L6.08057 4.10054L7.21106 5.2318C7.44869 5.46969 7.82194 5.50481 8.09982 5.31511C9.28389 4.5089 10.6223 3.95621 12.0301 3.69166C12.3608 3.62911 12.6 3.34021 12.6 3.00363V1.39991H15.4001V3.00363C15.4001 3.33995 15.6393 3.6286 15.9694 3.69141C17.3776 3.95596 18.7157 4.50864 19.9 5.31486C20.1774 5.50532 20.5514 5.47046 20.7885 5.23154L21.9193 4.10028L23.8995 6.08057L22.768 7.21106C22.5304 7.44869 22.4953 7.82194 22.6847 8.09982C23.4912 9.28389 24.0439 10.6223 24.3082 12.0301C24.371 12.3608 24.6599 12.6 24.9962 12.6H26.5999V15.4001Z" stroke="white" stroke-width="0.5" mask="url(#path-2-outside-1_654_28938)"/>
</g>
<defs>
<clipPath id="clip0_654_28938">
<rect width="28" height="28" fill="white"/>
</clipPath>
</defs>
</svg>
